ISO-10303-21;
HEADER;
/* Generated by software containing ST-Developer
 * from STEP Tools, Inc. (www.steptools.com) 
 */
/* OPTION: using custom renumber hook */

FILE_DESCRIPTION(
/* description */ ('STEP AP242 Edition 2',
'CAx-IF Rec.Pracs.---Representation and Presentation of Product Manufa
cturing Information (PMI)---4.0---2014-10-13',
'CAx-IF Rec.Pracs.---3D Tessellated Geometry---0.4---2014-09-14','2;1',
'CAx-IF Rec.Pracs.---User Defined Attributes---1.5---2016-08-15'),
/* implementation_level */ '2;1');

FILE_NAME(
/* name */ 'Base - Part 2',
/* time_stamp */ '2026-08-21T09:05:40Z',
/* author */ (''),
/* organization */ (''),
/* preprocessor_version */ 'ST-DEVELOPER v20',
/* originating_system */ 'ONSHAPE BY PTC INC, 1.219',
/* authorisation */ '  ');

FILE_SCHEMA (('AP242_MANAGED_MODEL_BASED_3D_ENGINEERING_MIM_LF { 1 0 10303 442 3 1 4 }'));
ENDSEC;

DATA;
#10=SHAPE_REPRESENTATION_RELATIONSHIP('','',#339,#11);
#11=ADVANCED_BREP_SHAPE_REPRESENTATION('',(#337),#577);
#12=PLANE('',#345);
#13=PLANE('',#353);
#14=PLANE('',#355);
#15=PLANE('',#360);
#16=PLANE('',#361);
#17=PLANE('',#363);
#18=PLANE('',#364);
#19=PLANE('',#365);
#20=PLANE('',#367);
#21=PLANE('',#368);
#22=PLANE('',#371);
#23=PLANE('',#374);
#24=B_SPLINE_CURVE_WITH_KNOTS('',3,(#480,#481,#482,#483,#484,#485,#486),
 .UNSPECIFIED.,.F.,.F.,(4,1,1,1,4),(0.,0.00362521964474005,0.00725043928948011,
0.0108756589342202,0.0145008785789602),.UNSPECIFIED.);
#25=B_SPLINE_CURVE_WITH_KNOTS('',3,(#493,#494,#495,#496,#497,#498,#499),
 .UNSPECIFIED.,.F.,.F.,(4,1,1,1,4),(0.,0.00362365974081332,0.00724731948162664,
0.01087097922244,0.0144946389632533),.UNSPECIFIED.);
#26=CIRCLE('',#342,0.015);
#27=CIRCLE('',#344,0.015);
#28=CIRCLE('',#346,0.004);
#29=CIRCLE('',#348,0.11);
#30=CIRCLE('',#349,0.11);
#31=CIRCLE('',#351,0.11);
#32=CIRCLE('',#352,0.11);
#33=CIRCLE('',#354,0.105);
#34=CIRCLE('',#356,0.105);
#35=CIRCLE('',#359,0.004);
#36=CIRCLE('',#362,0.005);
#37=CIRCLE('',#366,0.005);
#38=CIRCLE('',#370,0.005);
#39=CIRCLE('',#373,0.005);
#40=ORIENTED_EDGE('',*,*,#124,.F.);
#41=ORIENTED_EDGE('',*,*,#125,.T.);
#42=ORIENTED_EDGE('',*,*,#126,.F.);
#43=ORIENTED_EDGE('',*,*,#127,.T.);
#44=ORIENTED_EDGE('',*,*,#128,.T.);
#45=ORIENTED_EDGE('',*,*,#129,.T.);
#46=ORIENTED_EDGE('',*,*,#130,.T.);
#47=ORIENTED_EDGE('',*,*,#131,.F.);
#48=ORIENTED_EDGE('',*,*,#132,.T.);
#49=ORIENTED_EDGE('',*,*,#125,.F.);
#50=ORIENTED_EDGE('',*,*,#133,.T.);
#51=ORIENTED_EDGE('',*,*,#128,.F.);
#52=ORIENTED_EDGE('',*,*,#134,.F.);
#53=ORIENTED_EDGE('',*,*,#127,.F.);
#54=ORIENTED_EDGE('',*,*,#135,.T.);
#55=ORIENTED_EDGE('',*,*,#136,.T.);
#56=ORIENTED_EDGE('',*,*,#137,.F.);
#57=ORIENTED_EDGE('',*,*,#130,.F.);
#58=ORIENTED_EDGE('',*,*,#138,.F.);
#59=ORIENTED_EDGE('',*,*,#139,.F.);
#60=ORIENTED_EDGE('',*,*,#140,.T.);
#61=ORIENTED_EDGE('',*,*,#131,.T.);
#62=ORIENTED_EDGE('',*,*,#140,.F.);
#63=ORIENTED_EDGE('',*,*,#141,.F.);
#64=ORIENTED_EDGE('',*,*,#142,.F.);
#65=ORIENTED_EDGE('',*,*,#143,.T.);
#66=ORIENTED_EDGE('',*,*,#144,.T.);
#67=ORIENTED_EDGE('',*,*,#145,.F.);
#68=ORIENTED_EDGE('',*,*,#146,.T.);
#69=ORIENTED_EDGE('',*,*,#147,.T.);
#70=ORIENTED_EDGE('',*,*,#135,.F.);
#71=ORIENTED_EDGE('',*,*,#126,.T.);
#72=ORIENTED_EDGE('',*,*,#134,.T.);
#73=ORIENTED_EDGE('',*,*,#138,.T.);
#74=ORIENTED_EDGE('',*,*,#129,.F.);
#75=ORIENTED_EDGE('',*,*,#133,.F.);
#76=ORIENTED_EDGE('',*,*,#124,.T.);
#77=ORIENTED_EDGE('',*,*,#137,.T.);
#78=ORIENTED_EDGE('',*,*,#148,.F.);
#79=ORIENTED_EDGE('',*,*,#149,.F.);
#80=ORIENTED_EDGE('',*,*,#150,.T.);
#81=ORIENTED_EDGE('',*,*,#151,.F.);
#82=ORIENTED_EDGE('',*,*,#152,.F.);
#83=ORIENTED_EDGE('',*,*,#153,.T.);
#84=ORIENTED_EDGE('',*,*,#154,.T.);
#85=ORIENTED_EDGE('',*,*,#151,.T.);
#86=ORIENTED_EDGE('',*,*,#155,.F.);
#87=ORIENTED_EDGE('',*,*,#144,.F.);
#88=ORIENTED_EDGE('',*,*,#156,.T.);
#89=ORIENTED_EDGE('',*,*,#157,.T.);
#90=ORIENTED_EDGE('',*,*,#132,.F.);
#91=ORIENTED_EDGE('',*,*,#157,.F.);
#92=ORIENTED_EDGE('',*,*,#158,.F.);
#93=ORIENTED_EDGE('',*,*,#155,.T.);
#94=ORIENTED_EDGE('',*,*,#150,.F.);
#95=ORIENTED_EDGE('',*,*,#159,.F.);
#96=ORIENTED_EDGE('',*,*,#145,.T.);
#97=ORIENTED_EDGE('',*,*,#136,.F.);
#98=ORIENTED_EDGE('',*,*,#147,.F.);
#99=ORIENTED_EDGE('',*,*,#160,.T.);
#100=ORIENTED_EDGE('',*,*,#148,.T.);
#101=ORIENTED_EDGE('',*,*,#159,.T.);
#102=ORIENTED_EDGE('',*,*,#149,.T.);
#103=ORIENTED_EDGE('',*,*,#160,.F.);
#104=ORIENTED_EDGE('',*,*,#146,.F.);
#105=ORIENTED_EDGE('',*,*,#161,.F.);
#106=ORIENTED_EDGE('',*,*,#156,.F.);
#107=ORIENTED_EDGE('',*,*,#143,.F.);
#108=ORIENTED_EDGE('',*,*,#162,.T.);
#109=ORIENTED_EDGE('',*,*,#152,.T.);
#110=ORIENTED_EDGE('',*,*,#139,.T.);
#111=ORIENTED_EDGE('',*,*,#154,.F.);
#112=ORIENTED_EDGE('',*,*,#163,.F.);
#113=ORIENTED_EDGE('',*,*,#141,.T.);
#114=ORIENTED_EDGE('',*,*,#162,.F.);
#115=ORIENTED_EDGE('',*,*,#142,.T.);
#116=ORIENTED_EDGE('',*,*,#163,.T.);
#117=ORIENTED_EDGE('',*,*,#153,.F.);
#118=ORIENTED_EDGE('',*,*,#164,.F.);
#119=ORIENTED_EDGE('',*,*,#161,.T.);
#120=ORIENTED_EDGE('',*,*,#164,.T.);
#121=ORIENTED_EDGE('',*,*,#165,.F.);
#122=ORIENTED_EDGE('',*,*,#158,.T.);
#123=ORIENTED_EDGE('',*,*,#165,.T.);
#124=EDGE_CURVE('',#166,#167,#196,.T.);
#125=EDGE_CURVE('',#166,#168,#26,.T.);
#126=EDGE_CURVE('',#169,#168,#197,.T.);
#127=EDGE_CURVE('',#169,#167,#24,.T.);
#128=EDGE_CURVE('',#170,#171,#27,.T.);
#129=EDGE_CURVE('',#171,#172,#198,.T.);
#130=EDGE_CURVE('',#172,#173,#25,.T.);
#131=EDGE_CURVE('',#170,#173,#199,.F.);
#132=EDGE_CURVE('',#174,#174,#28,.T.);
#133=EDGE_CURVE('',#166,#171,#200,.T.);
#134=EDGE_CURVE('',#168,#170,#201,.T.);
#135=EDGE_CURVE('',#169,#175,#29,.T.);
#136=EDGE_CURVE('',#175,#176,#202,.T.);
#137=EDGE_CURVE('',#167,#176,#30,.T.);
#138=EDGE_CURVE('',#177,#172,#31,.T.);
#139=EDGE_CURVE('',#178,#177,#203,.T.);
#140=EDGE_CURVE('',#178,#173,#32,.T.);
#141=EDGE_CURVE('',#179,#178,#204,.T.);
#142=EDGE_CURVE('',#180,#179,#205,.T.);
#143=EDGE_CURVE('',#180,#181,#206,.T.);
#144=EDGE_CURVE('',#181,#182,#33,.T.);
#145=EDGE_CURVE('',#183,#182,#207,.T.);
#146=EDGE_CURVE('',#183,#184,#208,.T.);
#147=EDGE_CURVE('',#184,#175,#209,.T.);
#148=EDGE_CURVE('',#185,#176,#210,.T.);
#149=EDGE_CURVE('',#186,#185,#211,.T.);
#150=EDGE_CURVE('',#186,#187,#212,.T.);
#151=EDGE_CURVE('',#188,#187,#34,.T.);
#152=EDGE_CURVE('',#189,#188,#213,.T.);
#153=EDGE_CURVE('',#189,#190,#214,.T.);
#154=EDGE_CURVE('',#190,#177,#215,.T.);
#155=EDGE_CURVE('',#182,#187,#216,.T.);
#156=EDGE_CURVE('',#181,#188,#217,.T.);
#157=EDGE_CURVE('',#191,#191,#35,.T.);
#158=EDGE_CURVE('',#192,#192,#36,.T.);
#159=EDGE_CURVE('',#183,#186,#218,.T.);
#160=EDGE_CURVE('',#184,#185,#219,.T.);
#161=EDGE_CURVE('',#193,#193,#37,.T.);
#162=EDGE_CURVE('',#180,#189,#220,.T.);
#163=EDGE_CURVE('',#179,#190,#221,.T.);
#164=EDGE_CURVE('',#194,#194,#38,.T.);
#165=EDGE_CURVE('',#195,#195,#39,.T.);
#166=VERTEX_POINT('',#474);
#167=VERTEX_POINT('',#475);
#168=VERTEX_POINT('',#477);
#169=VERTEX_POINT('',#479);
#170=VERTEX_POINT('',#489);
#171=VERTEX_POINT('',#490);
#172=VERTEX_POINT('',#492);
#173=VERTEX_POINT('',#500);
#174=VERTEX_POINT('',#504);
#175=VERTEX_POINT('',#509);
#176=VERTEX_POINT('',#511);
#177=VERTEX_POINT('',#515);
#178=VERTEX_POINT('',#517);
#179=VERTEX_POINT('',#521);
#180=VERTEX_POINT('',#523);
#181=VERTEX_POINT('',#525);
#182=VERTEX_POINT('',#527);
#183=VERTEX_POINT('',#529);
#184=VERTEX_POINT('',#531);
#185=VERTEX_POINT('',#535);
#186=VERTEX_POINT('',#537);
#187=VERTEX_POINT('',#539);
#188=VERTEX_POINT('',#541);
#189=VERTEX_POINT('',#543);
#190=VERTEX_POINT('',#545);
#191=VERTEX_POINT('',#552);
#192=VERTEX_POINT('',#556);
#193=VERTEX_POINT('',#563);
#194=VERTEX_POINT('',#570);
#195=VERTEX_POINT('',#574);
#196=LINE('',#473,#222);
#197=LINE('',#478,#223);
#198=LINE('',#491,#224);
#199=LINE('',#501,#225);
#200=LINE('',#505,#226);
#201=LINE('',#506,#227);
#202=LINE('',#510,#228);
#203=LINE('',#516,#229);
#204=LINE('',#520,#230);
#205=LINE('',#522,#231);
#206=LINE('',#524,#232);
#207=LINE('',#528,#233);
#208=LINE('',#530,#234);
#209=LINE('',#532,#235);
#210=LINE('',#534,#236);
#211=LINE('',#536,#237);
#212=LINE('',#538,#238);
#213=LINE('',#542,#239);
#214=LINE('',#544,#240);
#215=LINE('',#546,#241);
#216=LINE('',#548,#242);
#217=LINE('',#549,#243);
#218=LINE('',#557,#244);
#219=LINE('',#559,#245);
#220=LINE('',#564,#246);
#221=LINE('',#566,#247);
#222=VECTOR('',#379,1.);
#223=VECTOR('',#382,1.);
#224=VECTOR('',#387,1.);
#225=VECTOR('',#388,1.);
#226=VECTOR('',#393,1.);
#227=VECTOR('',#394,1.);
#228=VECTOR('',#399,1.);
#229=VECTOR('',#406,1.);
#230=VECTOR('',#411,1.);
#231=VECTOR('',#412,1.);
#232=VECTOR('',#413,1.);
#233=VECTOR('',#416,1.);
#234=VECTOR('',#417,1.);
#235=VECTOR('',#418,1.);
#236=VECTOR('',#421,1.);
#237=VECTOR('',#422,1.);
#238=VECTOR('',#423,1.);
#239=VECTOR('',#426,1.);
#240=VECTOR('',#427,1.);
#241=VECTOR('',#428,1.);
#242=VECTOR('',#431,1.);
#243=VECTOR('',#432,1.);
#244=VECTOR('',#443,1.);
#245=VECTOR('',#446,1.);
#246=VECTOR('',#453,1.);
#247=VECTOR('',#456,1.);
#248=EDGE_LOOP('',(#40,#41,#42,#43));
#249=EDGE_LOOP('',(#44,#45,#46,#47));
#250=EDGE_LOOP('',(#48));
#251=EDGE_LOOP('',(#49,#50,#51,#52));
#252=EDGE_LOOP('',(#53,#54,#55,#56));
#253=EDGE_LOOP('',(#57,#58,#59,#60));
#254=EDGE_LOOP('',(#61,#62,#63,#64,#65,#66,#67,#68,#69,#70,#71,#72));
#255=EDGE_LOOP('',(#73,#74,#75,#76,#77,#78,#79,#80,#81,#82,#83,#84));
#256=EDGE_LOOP('',(#85,#86,#87,#88));
#257=EDGE_LOOP('',(#89));
#258=EDGE_LOOP('',(#90));
#259=EDGE_LOOP('',(#91));
#260=EDGE_LOOP('',(#92));
#261=EDGE_LOOP('',(#93,#94,#95,#96));
#262=EDGE_LOOP('',(#97,#98,#99,#100));
#263=EDGE_LOOP('',(#101,#102,#103,#104));
#264=EDGE_LOOP('',(#105));
#265=EDGE_LOOP('',(#106,#107,#108,#109));
#266=EDGE_LOOP('',(#110,#111,#112,#113));
#267=EDGE_LOOP('',(#114,#115,#116,#117));
#268=EDGE_LOOP('',(#118));
#269=EDGE_LOOP('',(#119));
#270=EDGE_LOOP('',(#120));
#271=EDGE_LOOP('',(#121));
#272=EDGE_LOOP('',(#122));
#273=EDGE_LOOP('',(#123));
#274=FACE_BOUND('',#248,.T.);
#275=FACE_BOUND('',#249,.T.);
#276=FACE_BOUND('',#250,.T.);
#277=FACE_BOUND('',#251,.T.);
#278=FACE_BOUND('',#252,.T.);
#279=FACE_BOUND('',#253,.T.);
#280=FACE_BOUND('',#254,.T.);
#281=FACE_BOUND('',#255,.T.);
#282=FACE_BOUND('',#256,.T.);
#283=FACE_BOUND('',#257,.T.);
#284=FACE_BOUND('',#258,.T.);
#285=FACE_BOUND('',#259,.T.);
#286=FACE_BOUND('',#260,.T.);
#287=FACE_BOUND('',#261,.T.);
#288=FACE_BOUND('',#262,.T.);
#289=FACE_BOUND('',#263,.T.);
#290=FACE_BOUND('',#264,.T.);
#291=FACE_BOUND('',#265,.T.);
#292=FACE_BOUND('',#266,.T.);
#293=FACE_BOUND('',#267,.T.);
#294=FACE_BOUND('',#268,.T.);
#295=FACE_BOUND('',#269,.T.);
#296=FACE_BOUND('',#270,.T.);
#297=FACE_BOUND('',#271,.T.);
#298=FACE_BOUND('',#272,.T.);
#299=FACE_BOUND('',#273,.T.);
#300=CYLINDRICAL_SURFACE('',#341,0.015);
#301=CYLINDRICAL_SURFACE('',#343,0.015);
#302=CYLINDRICAL_SURFACE('',#347,0.11);
#303=CYLINDRICAL_SURFACE('',#350,0.11);
#304=CYLINDRICAL_SURFACE('',#357,0.105);
#305=CYLINDRICAL_SURFACE('',#358,0.004);
#306=CYLINDRICAL_SURFACE('',#369,0.005);
#307=CYLINDRICAL_SURFACE('',#372,0.005);
#308=ADVANCED_FACE('',(#274),#300,.T.);
#309=ADVANCED_FACE('',(#275),#301,.T.);
#310=ADVANCED_FACE('',(#276,#277),#12,.F.);
#311=ADVANCED_FACE('',(#278),#302,.T.);
#312=ADVANCED_FACE('',(#279),#303,.T.);
#313=ADVANCED_FACE('',(#280),#13,.T.);
#314=ADVANCED_FACE('',(#281),#14,.F.);
#315=ADVANCED_FACE('',(#282),#304,.F.);
#316=ADVANCED_FACE('',(#283,#284),#305,.T.);
#317=ADVANCED_FACE('',(#285),#15,.F.);
#318=ADVANCED_FACE('',(#286,#287),#16,.F.);
#319=ADVANCED_FACE('',(#288),#17,.T.);
#320=ADVANCED_FACE('',(#289),#18,.T.);
#321=ADVANCED_FACE('',(#290,#291),#19,.T.);
#322=ADVANCED_FACE('',(#292),#20,.F.);
#323=ADVANCED_FACE('',(#293),#21,.T.);
#324=ADVANCED_FACE('',(#294,#295),#306,.F.);
#325=ADVANCED_FACE('',(#296),#22,.T.);
#326=ADVANCED_FACE('',(#297,#298),#307,.F.);
#327=ADVANCED_FACE('',(#299),#23,.T.);
#328=CLOSED_SHELL('',(#308,#309,#310,#311,#312,#313,#314,#315,#316,#317,
#318,#319,#320,#321,#322,#323,#324,#325,#326,#327));
#329=STYLED_ITEM('',(#330),#337);
#330=PRESENTATION_STYLE_ASSIGNMENT((#331));
#331=SURFACE_STYLE_USAGE(.BOTH.,#332);
#332=SURFACE_SIDE_STYLE('',(#333));
#333=SURFACE_STYLE_FILL_AREA(#334);
#334=FILL_AREA_STYLE('',(#335));
#335=FILL_AREA_STYLE_COLOUR('',#336);
#336=COLOUR_RGB('',0.647058823529412,0.647058823529412,0.647058823529412);
#337=MANIFOLD_SOLID_BREP('Part 2',#328);
#338=SHAPE_DEFINITION_REPRESENTATION(#582,#339);
#339=SHAPE_REPRESENTATION('Part 2',(#340),#577);
#340=AXIS2_PLACEMENT_3D('',#471,#375,#376);
#341=AXIS2_PLACEMENT_3D('',#472,#377,#378);
#342=AXIS2_PLACEMENT_3D('',#476,#380,#381);
#343=AXIS2_PLACEMENT_3D('',#487,#383,#384);
#344=AXIS2_PLACEMENT_3D('',#488,#385,#386);
#345=AXIS2_PLACEMENT_3D('',#502,#389,#390);
#346=AXIS2_PLACEMENT_3D('',#503,#391,#392);
#347=AXIS2_PLACEMENT_3D('',#507,#395,#396);
#348=AXIS2_PLACEMENT_3D('',#508,#397,#398);
#349=AXIS2_PLACEMENT_3D('',#512,#400,#401);
#350=AXIS2_PLACEMENT_3D('',#513,#402,#403);
#351=AXIS2_PLACEMENT_3D('',#514,#404,#405);
#352=AXIS2_PLACEMENT_3D('',#518,#407,#408);
#353=AXIS2_PLACEMENT_3D('',#519,#409,#410);
#354=AXIS2_PLACEMENT_3D('',#526,#414,#415);
#355=AXIS2_PLACEMENT_3D('',#533,#419,#420);
#356=AXIS2_PLACEMENT_3D('',#540,#424,#425);
#357=AXIS2_PLACEMENT_3D('',#547,#429,#430);
#358=AXIS2_PLACEMENT_3D('',#550,#433,#434);
#359=AXIS2_PLACEMENT_3D('',#551,#435,#436);
#360=AXIS2_PLACEMENT_3D('',#553,#437,#438);
#361=AXIS2_PLACEMENT_3D('',#554,#439,#440);
#362=AXIS2_PLACEMENT_3D('',#555,#441,#442);
#363=AXIS2_PLACEMENT_3D('',#558,#444,#445);
#364=AXIS2_PLACEMENT_3D('',#560,#447,#448);
#365=AXIS2_PLACEMENT_3D('',#561,#449,#450);
#366=AXIS2_PLACEMENT_3D('',#562,#451,#452);
#367=AXIS2_PLACEMENT_3D('',#565,#454,#455);
#368=AXIS2_PLACEMENT_3D('',#567,#457,#458);
#369=AXIS2_PLACEMENT_3D('',#568,#459,#460);
#370=AXIS2_PLACEMENT_3D('',#569,#461,#462);
#371=AXIS2_PLACEMENT_3D('',#571,#463,#464);
#372=AXIS2_PLACEMENT_3D('',#572,#465,#466);
#373=AXIS2_PLACEMENT_3D('',#573,#467,#468);
#374=AXIS2_PLACEMENT_3D('',#575,#469,#470);
#375=DIRECTION('',(0.,0.,1.));
#376=DIRECTION('',(1.,0.,0.));
#377=DIRECTION('',(0.,0.,1.));
#378=DIRECTION('',(1.,0.,0.));
#379=DIRECTION('',(0.,0.,-1.));
#380=DIRECTION('',(0.,0.,-1.));
#381=DIRECTION('',(-1.,0.,0.));
#382=DIRECTION('',(0.,0.,1.));
#383=DIRECTION('',(0.,0.,1.));
#384=DIRECTION('',(1.,0.,0.));
#385=DIRECTION('',(0.,0.,-1.));
#386=DIRECTION('',(-1.,0.,0.));
#387=DIRECTION('',(0.,0.,-1.));
#388=DIRECTION('',(0.,0.,1.));
#389=DIRECTION('',(0.,0.,-1.));
#390=DIRECTION('',(1.,0.,0.));
#391=DIRECTION('',(0.,0.,-1.));
#392=DIRECTION('',(-1.,0.,0.));
#393=DIRECTION('',(0.,-1.,0.));
#394=DIRECTION('',(0.,-1.,0.));
#395=DIRECTION('',(-1.,0.,0.));
#396=DIRECTION('',(0.,0.,1.));
#397=DIRECTION('',(-1.,0.,0.));
#398=DIRECTION('',(0.,0.,-1.));
#399=DIRECTION('',(-1.,0.,0.));
#400=DIRECTION('',(-1.,0.,0.));
#401=DIRECTION('',(0.,0.,-1.));
#402=DIRECTION('',(-1.,0.,0.));
#403=DIRECTION('',(0.,0.,1.));
#404=DIRECTION('',(-1.,0.,0.));
#405=DIRECTION('',(0.,0.,-1.));
#406=DIRECTION('',(-1.,0.,0.));
#407=DIRECTION('',(-1.,0.,0.));
#408=DIRECTION('',(0.,0.,-1.));
#409=DIRECTION('',(1.,0.,0.));
#410=DIRECTION('',(0.,1.,0.));
#411=DIRECTION('',(0.,0.,1.));
#412=DIRECTION('',(0.,-1.,0.));
#413=DIRECTION('',(0.,0.,1.));
#414=DIRECTION('',(-1.,0.,0.));
#415=DIRECTION('',(0.,0.,-1.));
#416=DIRECTION('',(0.,0.,1.));
#417=DIRECTION('',(0.,1.,0.));
#418=DIRECTION('',(0.,0.,1.));
#419=DIRECTION('',(1.,0.,0.));
#420=DIRECTION('',(0.,1.,0.));
#421=DIRECTION('',(0.,0.,1.));
#422=DIRECTION('',(0.,1.,0.));
#423=DIRECTION('',(0.,0.,1.));
#424=DIRECTION('',(-1.,0.,0.));
#425=DIRECTION('',(0.,0.,-1.));
#426=DIRECTION('',(0.,0.,1.));
#427=DIRECTION('',(0.,-1.,0.));
#428=DIRECTION('',(0.,0.,1.));
#429=DIRECTION('',(-1.,0.,0.));
#430=DIRECTION('',(0.,0.,1.));
#431=DIRECTION('',(-1.,0.,0.));
#432=DIRECTION('',(-1.,0.,0.));
#433=DIRECTION('',(0.,0.,-1.));
#434=DIRECTION('',(-1.,0.,0.));
#435=DIRECTION('',(0.,0.,-1.));
#436=DIRECTION('',(-1.,0.,0.));
#437=DIRECTION('',(0.,0.,-1.));
#438=DIRECTION('',(1.,0.,0.));
#439=DIRECTION('',(0.,1.,0.));
#440=DIRECTION('',(0.,0.,1.));
#441=DIRECTION('',(0.,-1.,0.));
#442=DIRECTION('',(0.,0.,-1.));
#443=DIRECTION('',(-1.,0.,0.));
#444=DIRECTION('',(0.,1.,0.));
#445=DIRECTION('',(0.,0.,1.));
#446=DIRECTION('',(-1.,0.,0.));
#447=DIRECTION('',(0.,0.,-1.));
#448=DIRECTION('',(1.,0.,0.));
#449=DIRECTION('',(0.,1.,0.));
#450=DIRECTION('',(0.,0.,1.));
#451=DIRECTION('',(0.,1.,0.));
#452=DIRECTION('',(0.,0.,1.));
#453=DIRECTION('',(-1.,0.,0.));
#454=DIRECTION('',(0.,1.,0.));
#455=DIRECTION('',(0.,0.,1.));
#456=DIRECTION('',(-1.,0.,0.));
#457=DIRECTION('',(0.,0.,-1.));
#458=DIRECTION('',(1.,0.,0.));
#459=DIRECTION('',(0.,1.,0.));
#460=DIRECTION('',(0.,0.,1.));
#461=DIRECTION('',(0.,1.,0.));
#462=DIRECTION('',(0.,0.,1.));
#463=DIRECTION('',(0.,1.,0.));
#464=DIRECTION('',(-1.,0.,0.));
#465=DIRECTION('',(0.,-1.,0.));
#466=DIRECTION('',(0.,0.,-1.));
#467=DIRECTION('',(0.,-1.,0.));
#468=DIRECTION('',(0.,0.,-1.));
#469=DIRECTION('',(0.,-1.,0.));
#470=DIRECTION('',(1.,0.,0.));
#471=CARTESIAN_POINT('',(0.,0.,0.));
#472=CARTESIAN_POINT('',(0.,-9.18485099360515E-19,-0.027));
#473=CARTESIAN_POINT('',(-0.007,0.0132664991614216,-0.002));
#474=CARTESIAN_POINT('',(-0.007,0.0132664991614216,-0.025));
#475=CARTESIAN_POINT('',(-0.007,0.0132664991614216,-0.0260674043297204));
#476=CARTESIAN_POINT('',(0.,-9.18485099360515E-19,-0.025));
#477=CARTESIAN_POINT('',(0.007,0.0132664991614216,-0.025));
#478=CARTESIAN_POINT('',(0.007,0.0132664991614216,-0.027));
#479=CARTESIAN_POINT('',(0.007,0.0132664991614216,-0.0260674043297204));
#480=CARTESIAN_POINT('',(0.007,0.0132664991614216,-0.0260674043297204));
#481=CARTESIAN_POINT('',(0.00591829659773385,0.0138372543941119,-0.0261475004984257));
#482=CARTESIAN_POINT('',(0.0036582717155087,0.0146979784517811,-0.0262768879800128));
#483=CARTESIAN_POINT('',(1.37956268080806E-6,0.0151502479048849,-0.0263485945596801));
#484=CARTESIAN_POINT('',(-0.00364675097684033,0.0147010283157507,-0.0262773530303164));
#485=CARTESIAN_POINT('',(-0.00591827652009077,0.0138372649879769,-0.0261475019851015));
#486=CARTESIAN_POINT('',(-0.007,0.0132664991614216,-0.0260674043297204));
#487=CARTESIAN_POINT('',(0.,-9.18485099360515E-19,-0.027));
#488=CARTESIAN_POINT('',(0.,-9.18485099360515E-19,-0.025));
#489=CARTESIAN_POINT('',(0.007,-0.0132664991614216,-0.025));
#490=CARTESIAN_POINT('',(-0.007,-0.0132664991614216,-0.025));
#491=CARTESIAN_POINT('',(-0.007,-0.0132664991614216,-0.002));
#492=CARTESIAN_POINT('',(-0.007,-0.0132664991614216,-0.0255763942969058));
#493=CARTESIAN_POINT('',(-0.007,-0.0132664991614216,-0.0255763942969058));
#494=CARTESIAN_POINT('',(-0.00591764425007348,-0.0138375986019973,-0.025635089447944));
#495=CARTESIAN_POINT('',(-0.00365730415452034,-0.0146981898292673,-0.0257320228397407));
#496=CARTESIAN_POINT('',(-1.44909784401884E-6,-0.0151500579251233,-0.0257865750493023));
#497=CARTESIAN_POINT('',(0.00364446329638419,-0.0147015765405338,-0.0257324114620933));
#498=CARTESIAN_POINT('',(0.00591763045893463,-0.0138376058788207,-0.0256350901958247));
#499=CARTESIAN_POINT('',(0.007,-0.0132664991614216,-0.0255763942969058));
#500=CARTESIAN_POINT('',(0.007,-0.0132664991614216,-0.0255763942969058));
#501=CARTESIAN_POINT('',(0.007,-0.0132664991614216,-0.027));
#502=CARTESIAN_POINT('',(0.,0.,-0.025));
#503=CARTESIAN_POINT('',(0.,-4.89858719658941E-19,-0.025));
#504=CARTESIAN_POINT('',(-0.004,-4.89858719658941E-19,-0.025));
#505=CARTESIAN_POINT('',(-0.007,0.,-0.025));
#506=CARTESIAN_POINT('',(0.007,0.,-0.025));
#507=CARTESIAN_POINT('',(0.007,-0.00202041028867285,-0.135));
#508=CARTESIAN_POINT('',(0.007,-0.00202041028867285,-0.135));
#509=CARTESIAN_POINT('',(0.007,0.107979589711327,-0.135));
#510=CARTESIAN_POINT('',(0.007,0.107979589711327,-0.135));
#511=CARTESIAN_POINT('',(-0.007,0.107979589711327,-0.135));
#512=CARTESIAN_POINT('',(-0.007,-0.00202041028867285,-0.135));
#513=CARTESIAN_POINT('',(0.007,-0.00202041028867285,-0.135));
#514=CARTESIAN_POINT('',(-0.007,-0.00202041028867285,-0.135));
#515=CARTESIAN_POINT('',(-0.007,-0.112020410288673,-0.135));
#516=CARTESIAN_POINT('',(0.007,-0.112020410288673,-0.135));
#517=CARTESIAN_POINT('',(0.007,-0.112020410288673,-0.135));
#518=CARTESIAN_POINT('',(0.007,-0.00202041028867285,-0.135));
#519=CARTESIAN_POINT('',(0.007,-0.00202041028867285,-0.08));
#520=CARTESIAN_POINT('',(0.007,-0.112020410288673,-0.147));
#521=CARTESIAN_POINT('',(0.007,-0.112020410288673,-0.147));
#522=CARTESIAN_POINT('',(0.007,-0.109520410288673,-0.147));
#523=CARTESIAN_POINT('',(0.007,-0.107020410288673,-0.147));
#524=CARTESIAN_POINT('',(0.007,-0.107020410288673,-0.147));
#525=CARTESIAN_POINT('',(0.007,-0.107020410288673,-0.135));
#526=CARTESIAN_POINT('',(0.007,-0.00202041028867285,-0.135));
#527=CARTESIAN_POINT('',(0.007,0.102979589711327,-0.135));
#528=CARTESIAN_POINT('',(0.007,0.102979589711327,-0.147));
#529=CARTESIAN_POINT('',(0.007,0.102979589711327,-0.147));
#530=CARTESIAN_POINT('',(0.007,0.105479589711327,-0.147));
#531=CARTESIAN_POINT('',(0.007,0.107979589711327,-0.147));
#532=CARTESIAN_POINT('',(0.007,0.107979589711327,-0.147));
#533=CARTESIAN_POINT('',(-0.007,-0.00202041028867285,-0.08));
#534=CARTESIAN_POINT('',(-0.007,0.107979589711327,-0.147));
#535=CARTESIAN_POINT('',(-0.007,0.107979589711327,-0.147));
#536=CARTESIAN_POINT('',(-0.007,0.105479589711327,-0.147));
#537=CARTESIAN_POINT('',(-0.007,0.102979589711327,-0.147));
#538=CARTESIAN_POINT('',(-0.007,0.102979589711327,-0.147));
#539=CARTESIAN_POINT('',(-0.007,0.102979589711327,-0.135));
#540=CARTESIAN_POINT('',(-0.007,-0.00202041028867285,-0.135));
#541=CARTESIAN_POINT('',(-0.007,-0.107020410288673,-0.135));
#542=CARTESIAN_POINT('',(-0.007,-0.107020410288673,-0.147));
#543=CARTESIAN_POINT('',(-0.007,-0.107020410288673,-0.147));
#544=CARTESIAN_POINT('',(-0.007,-0.109520410288673,-0.147));
#545=CARTESIAN_POINT('',(-0.007,-0.112020410288673,-0.147));
#546=CARTESIAN_POINT('',(-0.007,-0.112020410288673,-0.147));
#547=CARTESIAN_POINT('',(0.007,-0.00202041028867285,-0.135));
#548=CARTESIAN_POINT('',(0.007,0.102979589711327,-0.135));
#549=CARTESIAN_POINT('',(0.007,-0.107020410288673,-0.135));
#550=CARTESIAN_POINT('',(0.,-4.89858719658941E-19,-0.018));
#551=CARTESIAN_POINT('',(0.,-4.89858719658941E-19,-0.018));
#552=CARTESIAN_POINT('',(-0.004,-4.89858719658941E-19,-0.018));
#553=CARTESIAN_POINT('',(0.,0.,-0.018));
#554=CARTESIAN_POINT('',(0.007,0.102979589711327,-0.147));
#555=CARTESIAN_POINT('',(0.,0.102979589711327,-0.141));
#556=CARTESIAN_POINT('',(0.,0.102979589711327,-0.146));
#557=CARTESIAN_POINT('',(0.007,0.102979589711327,-0.147));
#558=CARTESIAN_POINT('',(0.007,0.107979589711327,-0.147));
#559=CARTESIAN_POINT('',(0.007,0.107979589711327,-0.147));
#560=CARTESIAN_POINT('',(0.,-0.00202041028867285,-0.147));
#561=CARTESIAN_POINT('',(0.,-0.107020410288673,-0.147));
#562=CARTESIAN_POINT('',(0.,-0.107020410288673,-0.141));
#563=CARTESIAN_POINT('',(0.,-0.107020410288673,-0.136));
#564=CARTESIAN_POINT('',(0.,-0.107020410288673,-0.147));
#565=CARTESIAN_POINT('',(0.,-0.112020410288673,-0.147));
#566=CARTESIAN_POINT('',(0.,-0.112020410288673,-0.147));
#567=CARTESIAN_POINT('',(0.,-0.00202041028867285,-0.147));
#568=CARTESIAN_POINT('',(0.,-0.111120410288673,-0.141));
#569=CARTESIAN_POINT('',(0.,-0.111120410288673,-0.141));
#570=CARTESIAN_POINT('',(0.,-0.111120410288673,-0.136));
#571=CARTESIAN_POINT('',(0.,-0.111120410288673,-0.141));
#572=CARTESIAN_POINT('',(0.,0.107079589711327,-0.141));
#573=CARTESIAN_POINT('',(0.,0.107079589711327,-0.141));
#574=CARTESIAN_POINT('',(0.,0.107079589711327,-0.146));
#575=CARTESIAN_POINT('',(0.,0.107079589711327,-0.141));
#576=MECHANICAL_DESIGN_GEOMETRIC_PRESENTATION_REPRESENTATION('',(#329),
#577);
#577=(
GEOMETRIC_REPRESENTATION_CONTEXT(3)
GLOBAL_UNCERTAINTY_ASSIGNED_CONTEXT((#578))
GLOBAL_UNIT_ASSIGNED_CONTEXT((#581,#580,#579))
REPRESENTATION_CONTEXT('Part 2','TOP_LEVEL_ASSEMBLY_PART')
);
#578=UNCERTAINTY_MEASURE_WITH_UNIT(LENGTH_MEASURE(2.E-5),#581,
'DISTANCE_ACCURACY_VALUE','Maximum Tolerance applied to model');
#579=(
NAMED_UNIT(*)
SI_UNIT($,.STERADIAN.)
SOLID_ANGLE_UNIT()
);
#580=(
NAMED_UNIT(*)
PLANE_ANGLE_UNIT()
SI_UNIT($,.RADIAN.)
);
#581=(
LENGTH_UNIT()
NAMED_UNIT(*)
SI_UNIT($,.METRE.)
);
#582=PRODUCT_DEFINITION_SHAPE('','',#583);
#583=PRODUCT_DEFINITION('','',#585,#584);
#584=PRODUCT_DEFINITION_CONTEXT('',#591,'design');
#585=PRODUCT_DEFINITION_FORMATION_WITH_SPECIFIED_SOURCE('','',#587,
 .NOT_KNOWN.);
#586=PRODUCT_RELATED_PRODUCT_CATEGORY('','',(#587));
#587=PRODUCT('Part 2','Part 2','Part 2',(#589));
#588=PRODUCT_CATEGORY('','');
#589=PRODUCT_CONTEXT('',#591,'mechanical');
#590=APPLICATION_PROTOCOL_DEFINITION('international standard',
'ap242_managed_model_based_3d_engineering',2020,#591);
#591=APPLICATION_CONTEXT('managed model based 3d engineering');
ENDSEC;
END-ISO-10303-21;
