ISO-10303-21;
HEADER;
/* Generated by software containing ST-Developer
 * from STEP Tools, Inc. (www.steptools.com) 
 */
/* OPTION: using custom renumber hook */

FILE_DESCRIPTION(
/* description */ ('STEP AP242 Edition 2',
'CAx-IF Rec.Pracs.---Representation and Presentation of Product Manufa
cturing Information (PMI)---4.0---2014-10-13',
'CAx-IF Rec.Pracs.---3D Tessellated Geometry---0.4---2014-09-14','2;1',
'CAx-IF Rec.Pracs.---User Defined Attributes---1.5---2016-08-15'),
/* implementation_level */ '2;1');

FILE_NAME(
/* name */ 'Base - Part 4',
/* time_stamp */ '2026-08-21T12:23:58Z',
/* author */ (''),
/* organization */ (''),
/* preprocessor_version */ 'ST-DEVELOPER v20',
/* originating_system */ 'ONSHAPE BY PTC INC, 1.219',
/* authorisation */ '  ');

FILE_SCHEMA (('AP242_MANAGED_MODEL_BASED_3D_ENGINEERING_MIM_LF { 1 0 10303 442 3 1 4 }'));
ENDSEC;

DATA;
#10=SHAPE_REPRESENTATION_RELATIONSHIP('','',#423,#11);
#11=ADVANCED_BREP_SHAPE_REPRESENTATION('',(#421),#673);
#12=CYLINDRICAL_SURFACE('',#447,0.0015);
#13=CYLINDRICAL_SURFACE('',#450,0.0015);
#14=CIRCLE('',#429,0.0015);
#15=CIRCLE('',#431,0.0015);
#16=CIRCLE('',#448,0.0015);
#17=CIRCLE('',#451,0.0015);
#18=ORIENTED_EDGE('',*,*,#122,.T.);
#19=ORIENTED_EDGE('',*,*,#123,.T.);
#20=ORIENTED_EDGE('',*,*,#124,.F.);
#21=ORIENTED_EDGE('',*,*,#125,.F.);
#22=ORIENTED_EDGE('',*,*,#126,.F.);
#23=ORIENTED_EDGE('',*,*,#127,.F.);
#24=ORIENTED_EDGE('',*,*,#128,.F.);
#25=ORIENTED_EDGE('',*,*,#129,.T.);
#26=ORIENTED_EDGE('',*,*,#130,.T.);
#27=ORIENTED_EDGE('',*,*,#131,.T.);
#28=ORIENTED_EDGE('',*,*,#132,.T.);
#29=ORIENTED_EDGE('',*,*,#133,.T.);
#30=ORIENTED_EDGE('',*,*,#134,.F.);
#31=ORIENTED_EDGE('',*,*,#135,.F.);
#32=ORIENTED_EDGE('',*,*,#127,.T.);
#33=ORIENTED_EDGE('',*,*,#136,.F.);
#34=ORIENTED_EDGE('',*,*,#137,.F.);
#35=ORIENTED_EDGE('',*,*,#138,.T.);
#36=ORIENTED_EDGE('',*,*,#129,.F.);
#37=ORIENTED_EDGE('',*,*,#139,.T.);
#38=ORIENTED_EDGE('',*,*,#140,.T.);
#39=ORIENTED_EDGE('',*,*,#141,.F.);
#40=ORIENTED_EDGE('',*,*,#142,.F.);
#41=ORIENTED_EDGE('',*,*,#143,.F.);
#42=ORIENTED_EDGE('',*,*,#144,.F.);
#43=ORIENTED_EDGE('',*,*,#139,.F.);
#44=ORIENTED_EDGE('',*,*,#128,.T.);
#45=ORIENTED_EDGE('',*,*,#135,.T.);
#46=ORIENTED_EDGE('',*,*,#145,.F.);
#47=ORIENTED_EDGE('',*,*,#146,.F.);
#48=ORIENTED_EDGE('',*,*,#147,.F.);
#49=ORIENTED_EDGE('',*,*,#141,.T.);
#50=ORIENTED_EDGE('',*,*,#148,.T.);
#51=ORIENTED_EDGE('',*,*,#133,.F.);
#52=ORIENTED_EDGE('',*,*,#140,.F.);
#53=ORIENTED_EDGE('',*,*,#145,.T.);
#54=ORIENTED_EDGE('',*,*,#134,.T.);
#55=ORIENTED_EDGE('',*,*,#148,.F.);
#56=ORIENTED_EDGE('',*,*,#149,.T.);
#57=ORIENTED_EDGE('',*,*,#150,.T.);
#58=ORIENTED_EDGE('',*,*,#151,.F.);
#59=ORIENTED_EDGE('',*,*,#152,.F.);
#60=ORIENTED_EDGE('',*,*,#153,.F.);
#61=ORIENTED_EDGE('',*,*,#142,.T.);
#62=ORIENTED_EDGE('',*,*,#147,.T.);
#63=ORIENTED_EDGE('',*,*,#132,.F.);
#64=ORIENTED_EDGE('',*,*,#126,.T.);
#65=ORIENTED_EDGE('',*,*,#138,.F.);
#66=ORIENTED_EDGE('',*,*,#154,.F.);
#67=ORIENTED_EDGE('',*,*,#136,.T.);
#68=ORIENTED_EDGE('',*,*,#153,.T.);
#69=ORIENTED_EDGE('',*,*,#131,.F.);
#70=ORIENTED_EDGE('',*,*,#155,.F.);
#71=ORIENTED_EDGE('',*,*,#143,.T.);
#72=ORIENTED_EDGE('',*,*,#130,.F.);
#73=ORIENTED_EDGE('',*,*,#154,.T.);
#74=ORIENTED_EDGE('',*,*,#137,.T.);
#75=ORIENTED_EDGE('',*,*,#155,.T.);
#76=ORIENTED_EDGE('',*,*,#149,.F.);
#77=ORIENTED_EDGE('',*,*,#156,.F.);
#78=ORIENTED_EDGE('',*,*,#157,.T.);
#79=ORIENTED_EDGE('',*,*,#158,.T.);
#80=ORIENTED_EDGE('',*,*,#152,.T.);
#81=ORIENTED_EDGE('',*,*,#159,.F.);
#82=ORIENTED_EDGE('',*,*,#160,.F.);
#83=ORIENTED_EDGE('',*,*,#156,.T.);
#84=ORIENTED_EDGE('',*,*,#151,.T.);
#85=ORIENTED_EDGE('',*,*,#161,.F.);
#86=ORIENTED_EDGE('',*,*,#162,.F.);
#87=ORIENTED_EDGE('',*,*,#159,.T.);
#88=ORIENTED_EDGE('',*,*,#150,.F.);
#89=ORIENTED_EDGE('',*,*,#158,.F.);
#90=ORIENTED_EDGE('',*,*,#163,.T.);
#91=ORIENTED_EDGE('',*,*,#161,.T.);
#92=ORIENTED_EDGE('',*,*,#157,.F.);
#93=ORIENTED_EDGE('',*,*,#160,.T.);
#94=ORIENTED_EDGE('',*,*,#162,.T.);
#95=ORIENTED_EDGE('',*,*,#163,.F.);
#96=ORIENTED_EDGE('',*,*,#122,.F.);
#97=ORIENTED_EDGE('',*,*,#164,.F.);
#98=ORIENTED_EDGE('',*,*,#165,.T.);
#99=ORIENTED_EDGE('',*,*,#166,.T.);
#100=ORIENTED_EDGE('',*,*,#125,.T.);
#101=ORIENTED_EDGE('',*,*,#167,.F.);
#102=ORIENTED_EDGE('',*,*,#168,.F.);
#103=ORIENTED_EDGE('',*,*,#164,.T.);
#104=ORIENTED_EDGE('',*,*,#124,.T.);
#105=ORIENTED_EDGE('',*,*,#169,.F.);
#106=ORIENTED_EDGE('',*,*,#170,.F.);
#107=ORIENTED_EDGE('',*,*,#167,.T.);
#108=ORIENTED_EDGE('',*,*,#123,.F.);
#109=ORIENTED_EDGE('',*,*,#166,.F.);
#110=ORIENTED_EDGE('',*,*,#171,.T.);
#111=ORIENTED_EDGE('',*,*,#169,.T.);
#112=ORIENTED_EDGE('',*,*,#165,.F.);
#113=ORIENTED_EDGE('',*,*,#168,.T.);
#114=ORIENTED_EDGE('',*,*,#170,.T.);
#115=ORIENTED_EDGE('',*,*,#171,.F.);
#116=ORIENTED_EDGE('',*,*,#172,.F.);
#117=ORIENTED_EDGE('',*,*,#144,.T.);
#118=ORIENTED_EDGE('',*,*,#172,.T.);
#119=ORIENTED_EDGE('',*,*,#173,.F.);
#120=ORIENTED_EDGE('',*,*,#146,.T.);
#121=ORIENTED_EDGE('',*,*,#173,.T.);
#122=EDGE_CURVE('',#174,#175,#210,.T.);
#123=EDGE_CURVE('',#175,#176,#211,.T.);
#124=EDGE_CURVE('',#177,#176,#212,.T.);
#125=EDGE_CURVE('',#174,#177,#213,.T.);
#126=EDGE_CURVE('',#178,#179,#214,.T.);
#127=EDGE_CURVE('',#180,#178,#215,.T.);
#128=EDGE_CURVE('',#181,#180,#216,.T.);
#129=EDGE_CURVE('',#181,#179,#217,.T.);
#130=EDGE_CURVE('',#182,#183,#218,.T.);
#131=EDGE_CURVE('',#183,#184,#219,.T.);
#132=EDGE_CURVE('',#184,#185,#220,.T.);
#133=EDGE_CURVE('',#185,#186,#221,.T.);
#134=EDGE_CURVE('',#187,#186,#222,.T.);
#135=EDGE_CURVE('',#180,#187,#223,.T.);
#136=EDGE_CURVE('',#182,#178,#224,.T.);
#137=EDGE_CURVE('',#188,#189,#225,.T.);
#138=EDGE_CURVE('',#188,#179,#226,.T.);
#139=EDGE_CURVE('',#181,#190,#227,.T.);
#140=EDGE_CURVE('',#190,#191,#228,.T.);
#141=EDGE_CURVE('',#192,#191,#229,.T.);
#142=EDGE_CURVE('',#193,#192,#230,.T.);
#143=EDGE_CURVE('',#189,#193,#231,.T.);
#144=EDGE_CURVE('',#194,#194,#14,.T.);
#145=EDGE_CURVE('',#190,#187,#232,.T.);
#146=EDGE_CURVE('',#195,#195,#15,.T.);
#147=EDGE_CURVE('',#192,#185,#233,.T.);
#148=EDGE_CURVE('',#191,#186,#234,.T.);
#149=EDGE_CURVE('',#196,#197,#235,.T.);
#150=EDGE_CURVE('',#197,#198,#236,.T.);
#151=EDGE_CURVE('',#199,#198,#237,.T.);
#152=EDGE_CURVE('',#196,#199,#238,.T.);
#153=EDGE_CURVE('',#193,#184,#239,.T.);
#154=EDGE_CURVE('',#182,#188,#240,.T.);
#155=EDGE_CURVE('',#189,#183,#241,.T.);
#156=EDGE_CURVE('',#200,#196,#242,.T.);
#157=EDGE_CURVE('',#200,#201,#243,.T.);
#158=EDGE_CURVE('',#201,#197,#244,.T.);
#159=EDGE_CURVE('',#202,#199,#245,.T.);
#160=EDGE_CURVE('',#200,#202,#246,.T.);
#161=EDGE_CURVE('',#203,#198,#247,.T.);
#162=EDGE_CURVE('',#202,#203,#248,.T.);
#163=EDGE_CURVE('',#201,#203,#249,.T.);
#164=EDGE_CURVE('',#204,#174,#250,.T.);
#165=EDGE_CURVE('',#204,#205,#251,.T.);
#166=EDGE_CURVE('',#205,#175,#252,.T.);
#167=EDGE_CURVE('',#206,#177,#253,.T.);
#168=EDGE_CURVE('',#204,#206,#254,.T.);
#169=EDGE_CURVE('',#207,#176,#255,.T.);
#170=EDGE_CURVE('',#206,#207,#256,.T.);
#171=EDGE_CURVE('',#205,#207,#257,.T.);
#172=EDGE_CURVE('',#208,#208,#16,.T.);
#173=EDGE_CURVE('',#209,#209,#17,.T.);
#174=VERTEX_POINT('',#562);
#175=VERTEX_POINT('',#563);
#176=VERTEX_POINT('',#565);
#177=VERTEX_POINT('',#567);
#178=VERTEX_POINT('',#570);
#179=VERTEX_POINT('',#571);
#180=VERTEX_POINT('',#573);
#181=VERTEX_POINT('',#575);
#182=VERTEX_POINT('',#579);
#183=VERTEX_POINT('',#580);
#184=VERTEX_POINT('',#582);
#185=VERTEX_POINT('',#584);
#186=VERTEX_POINT('',#586);
#187=VERTEX_POINT('',#588);
#188=VERTEX_POINT('',#593);
#189=VERTEX_POINT('',#594);
#190=VERTEX_POINT('',#597);
#191=VERTEX_POINT('',#599);
#192=VERTEX_POINT('',#601);
#193=VERTEX_POINT('',#603);
#194=VERTEX_POINT('',#607);
#195=VERTEX_POINT('',#611);
#196=VERTEX_POINT('',#617);
#197=VERTEX_POINT('',#618);
#198=VERTEX_POINT('',#620);
#199=VERTEX_POINT('',#622);
#200=VERTEX_POINT('',#632);
#201=VERTEX_POINT('',#634);
#202=VERTEX_POINT('',#638);
#203=VERTEX_POINT('',#642);
#204=VERTEX_POINT('',#649);
#205=VERTEX_POINT('',#651);
#206=VERTEX_POINT('',#655);
#207=VERTEX_POINT('',#659);
#208=VERTEX_POINT('',#666);
#209=VERTEX_POINT('',#670);
#210=LINE('',#561,#258);
#211=LINE('',#564,#259);
#212=LINE('',#566,#260);
#213=LINE('',#568,#261);
#214=LINE('',#569,#262);
#215=LINE('',#572,#263);
#216=LINE('',#574,#264);
#217=LINE('',#576,#265);
#218=LINE('',#578,#266);
#219=LINE('',#581,#267);
#220=LINE('',#583,#268);
#221=LINE('',#585,#269);
#222=LINE('',#587,#270);
#223=LINE('',#589,#271);
#224=LINE('',#590,#272);
#225=LINE('',#592,#273);
#226=LINE('',#595,#274);
#227=LINE('',#596,#275);
#228=LINE('',#598,#276);
#229=LINE('',#600,#277);
#230=LINE('',#602,#278);
#231=LINE('',#604,#279);
#232=LINE('',#608,#280);
#233=LINE('',#612,#281);
#234=LINE('',#613,#282);
#235=LINE('',#616,#283);
#236=LINE('',#619,#284);
#237=LINE('',#621,#285);
#238=LINE('',#623,#286);
#239=LINE('',#624,#287);
#240=LINE('',#626,#288);
#241=LINE('',#628,#289);
#242=LINE('',#631,#290);
#243=LINE('',#633,#291);
#244=LINE('',#635,#292);
#245=LINE('',#637,#293);
#246=LINE('',#639,#294);
#247=LINE('',#641,#295);
#248=LINE('',#643,#296);
#249=LINE('',#645,#297);
#250=LINE('',#648,#298);
#251=LINE('',#650,#299);
#252=LINE('',#652,#300);
#253=LINE('',#654,#301);
#254=LINE('',#656,#302);
#255=LINE('',#658,#303);
#256=LINE('',#660,#304);
#257=LINE('',#662,#305);
#258=VECTOR('',#457,1.);
#259=VECTOR('',#458,1.);
#260=VECTOR('',#459,1.);
#261=VECTOR('',#460,1.);
#262=VECTOR('',#461,1.);
#263=VECTOR('',#462,1.);
#264=VECTOR('',#463,1.);
#265=VECTOR('',#464,1.);
#266=VECTOR('',#467,1.);
#267=VECTOR('',#468,1.);
#268=VECTOR('',#469,1.);
#269=VECTOR('',#470,1.);
#270=VECTOR('',#471,1.);
#271=VECTOR('',#472,1.);
#272=VECTOR('',#473,1.);
#273=VECTOR('',#476,1.);
#274=VECTOR('',#477,1.);
#275=VECTOR('',#478,1.);
#276=VECTOR('',#479,1.);
#277=VECTOR('',#480,1.);
#278=VECTOR('',#481,1.);
#279=VECTOR('',#482,1.);
#280=VECTOR('',#487,1.);
#281=VECTOR('',#492,1.);
#282=VECTOR('',#493,1.);
#283=VECTOR('',#498,1.);
#284=VECTOR('',#499,1.);
#285=VECTOR('',#500,1.);
#286=VECTOR('',#501,1.);
#287=VECTOR('',#502,1.);
#288=VECTOR('',#505,1.);
#289=VECTOR('',#508,1.);
#290=VECTOR('',#513,1.);
#291=VECTOR('',#514,1.);
#292=VECTOR('',#515,1.);
#293=VECTOR('',#518,1.);
#294=VECTOR('',#519,1.);
#295=VECTOR('',#522,1.);
#296=VECTOR('',#523,1.);
#297=VECTOR('',#526,1.);
#298=VECTOR('',#531,1.);
#299=VECTOR('',#532,1.);
#300=VECTOR('',#533,1.);
#301=VECTOR('',#536,1.);
#302=VECTOR('',#537,1.);
#303=VECTOR('',#540,1.);
#304=VECTOR('',#541,1.);
#305=VECTOR('',#544,1.);
#306=EDGE_LOOP('',(#18,#19,#20,#21));
#307=EDGE_LOOP('',(#22,#23,#24,#25));
#308=EDGE_LOOP('',(#26,#27,#28,#29,#30,#31,#32,#33));
#309=EDGE_LOOP('',(#34,#35,#36,#37,#38,#39,#40,#41));
#310=EDGE_LOOP('',(#42));
#311=EDGE_LOOP('',(#43,#44,#45,#46));
#312=EDGE_LOOP('',(#47));
#313=EDGE_LOOP('',(#48,#49,#50,#51));
#314=EDGE_LOOP('',(#52,#53,#54,#55));
#315=EDGE_LOOP('',(#56,#57,#58,#59));
#316=EDGE_LOOP('',(#60,#61,#62,#63));
#317=EDGE_LOOP('',(#64,#65,#66,#67));
#318=EDGE_LOOP('',(#68,#69,#70,#71));
#319=EDGE_LOOP('',(#72,#73,#74,#75));
#320=EDGE_LOOP('',(#76,#77,#78,#79));
#321=EDGE_LOOP('',(#80,#81,#82,#83));
#322=EDGE_LOOP('',(#84,#85,#86,#87));
#323=EDGE_LOOP('',(#88,#89,#90,#91));
#324=EDGE_LOOP('',(#92,#93,#94,#95));
#325=EDGE_LOOP('',(#96,#97,#98,#99));
#326=EDGE_LOOP('',(#100,#101,#102,#103));
#327=EDGE_LOOP('',(#104,#105,#106,#107));
#328=EDGE_LOOP('',(#108,#109,#110,#111));
#329=EDGE_LOOP('',(#112,#113,#114,#115));
#330=EDGE_LOOP('',(#116));
#331=EDGE_LOOP('',(#117));
#332=EDGE_LOOP('',(#118));
#333=EDGE_LOOP('',(#119));
#334=EDGE_LOOP('',(#120));
#335=EDGE_LOOP('',(#121));
#336=FACE_BOUND('',#306,.T.);
#337=FACE_BOUND('',#307,.T.);
#338=FACE_BOUND('',#308,.T.);
#339=FACE_BOUND('',#309,.T.);
#340=FACE_BOUND('',#310,.T.);
#341=FACE_BOUND('',#311,.T.);
#342=FACE_BOUND('',#312,.T.);
#343=FACE_BOUND('',#313,.T.);
#344=FACE_BOUND('',#314,.T.);
#345=FACE_BOUND('',#315,.T.);
#346=FACE_BOUND('',#316,.T.);
#347=FACE_BOUND('',#317,.T.);
#348=FACE_BOUND('',#318,.T.);
#349=FACE_BOUND('',#319,.T.);
#350=FACE_BOUND('',#320,.T.);
#351=FACE_BOUND('',#321,.T.);
#352=FACE_BOUND('',#322,.T.);
#353=FACE_BOUND('',#323,.T.);
#354=FACE_BOUND('',#324,.T.);
#355=FACE_BOUND('',#325,.T.);
#356=FACE_BOUND('',#326,.T.);
#357=FACE_BOUND('',#327,.T.);
#358=FACE_BOUND('',#328,.T.);
#359=FACE_BOUND('',#329,.T.);
#360=FACE_BOUND('',#330,.T.);
#361=FACE_BOUND('',#331,.T.);
#362=FACE_BOUND('',#332,.T.);
#363=FACE_BOUND('',#333,.T.);
#364=FACE_BOUND('',#334,.T.);
#365=FACE_BOUND('',#335,.T.);
#366=PLANE('',#425);
#367=PLANE('',#426);
#368=PLANE('',#427);
#369=PLANE('',#428);
#370=PLANE('',#430);
#371=PLANE('',#432);
#372=PLANE('',#433);
#373=PLANE('',#434);
#374=PLANE('',#435);
#375=PLANE('',#436);
#376=PLANE('',#437);
#377=PLANE('',#438);
#378=PLANE('',#439);
#379=PLANE('',#440);
#380=PLANE('',#441);
#381=PLANE('',#442);
#382=PLANE('',#443);
#383=PLANE('',#444);
#384=PLANE('',#445);
#385=PLANE('',#446);
#386=PLANE('',#449);
#387=PLANE('',#452);
#388=ADVANCED_FACE('',(#336,#337),#366,.T.);
#389=ADVANCED_FACE('',(#338),#367,.T.);
#390=ADVANCED_FACE('',(#339),#368,.F.);
#391=ADVANCED_FACE('',(#340,#341),#369,.T.);
#392=ADVANCED_FACE('',(#342,#343),#370,.F.);
#393=ADVANCED_FACE('',(#344),#371,.T.);
#394=ADVANCED_FACE('',(#345,#346),#372,.T.);
#395=ADVANCED_FACE('',(#347),#373,.F.);
#396=ADVANCED_FACE('',(#348),#374,.F.);
#397=ADVANCED_FACE('',(#349),#375,.T.);
#398=ADVANCED_FACE('',(#350),#376,.T.);
#399=ADVANCED_FACE('',(#351),#377,.F.);
#400=ADVANCED_FACE('',(#352),#378,.F.);
#401=ADVANCED_FACE('',(#353),#379,.T.);
#402=ADVANCED_FACE('',(#354),#380,.T.);
#403=ADVANCED_FACE('',(#355),#381,.T.);
#404=ADVANCED_FACE('',(#356),#382,.F.);
#405=ADVANCED_FACE('',(#357),#383,.F.);
#406=ADVANCED_FACE('',(#358),#384,.T.);
#407=ADVANCED_FACE('',(#359),#385,.T.);
#408=ADVANCED_FACE('',(#360,#361),#12,.T.);
#409=ADVANCED_FACE('',(#362),#386,.T.);
#410=ADVANCED_FACE('',(#363,#364),#13,.T.);
#411=ADVANCED_FACE('',(#365),#387,.T.);
#412=CLOSED_SHELL('',(#388,#389,#390,#391,#392,#393,#394,#395,#396,#397,
#398,#399,#400,#401,#402,#403,#404,#405,#406,#407,#408,#409,#410,#411));
#413=STYLED_ITEM('',(#414),#421);
#414=PRESENTATION_STYLE_ASSIGNMENT((#415));
#415=SURFACE_STYLE_USAGE(.BOTH.,#416);
#416=SURFACE_SIDE_STYLE('',(#417));
#417=SURFACE_STYLE_FILL_AREA(#418);
#418=FILL_AREA_STYLE('',(#419));
#419=FILL_AREA_STYLE_COLOUR('',#420);
#420=COLOUR_RGB('',0.917647058823529,0.917647058823529,0.917647058823529);
#421=MANIFOLD_SOLID_BREP('Part 4',#412);
#422=SHAPE_DEFINITION_REPRESENTATION(#678,#423);
#423=SHAPE_REPRESENTATION('Part 4',(#424),#673);
#424=AXIS2_PLACEMENT_3D('',#559,#453,#454);
#425=AXIS2_PLACEMENT_3D('',#560,#455,#456);
#426=AXIS2_PLACEMENT_3D('',#577,#465,#466);
#427=AXIS2_PLACEMENT_3D('',#591,#474,#475);
#428=AXIS2_PLACEMENT_3D('',#605,#483,#484);
#429=AXIS2_PLACEMENT_3D('',#606,#485,#486);
#430=AXIS2_PLACEMENT_3D('',#609,#488,#489);
#431=AXIS2_PLACEMENT_3D('',#610,#490,#491);
#432=AXIS2_PLACEMENT_3D('',#614,#494,#495);
#433=AXIS2_PLACEMENT_3D('',#615,#496,#497);
#434=AXIS2_PLACEMENT_3D('',#625,#503,#504);
#435=AXIS2_PLACEMENT_3D('',#627,#506,#507);
#436=AXIS2_PLACEMENT_3D('',#629,#509,#510);
#437=AXIS2_PLACEMENT_3D('',#630,#511,#512);
#438=AXIS2_PLACEMENT_3D('',#636,#516,#517);
#439=AXIS2_PLACEMENT_3D('',#640,#520,#521);
#440=AXIS2_PLACEMENT_3D('',#644,#524,#525);
#441=AXIS2_PLACEMENT_3D('',#646,#527,#528);
#442=AXIS2_PLACEMENT_3D('',#647,#529,#530);
#443=AXIS2_PLACEMENT_3D('',#653,#534,#535);
#444=AXIS2_PLACEMENT_3D('',#657,#538,#539);
#445=AXIS2_PLACEMENT_3D('',#661,#542,#543);
#446=AXIS2_PLACEMENT_3D('',#663,#545,#546);
#447=AXIS2_PLACEMENT_3D('',#664,#547,#548);
#448=AXIS2_PLACEMENT_3D('',#665,#549,#550);
#449=AXIS2_PLACEMENT_3D('',#667,#551,#552);
#450=AXIS2_PLACEMENT_3D('',#668,#553,#554);
#451=AXIS2_PLACEMENT_3D('',#669,#555,#556);
#452=AXIS2_PLACEMENT_3D('',#671,#557,#558);
#453=DIRECTION('',(0.,0.,1.));
#454=DIRECTION('',(1.,0.,0.));
#455=DIRECTION('',(-1.,0.,0.));
#456=DIRECTION('',(0.,-1.,0.));
#457=DIRECTION('',(0.,1.,0.));
#458=DIRECTION('',(0.,0.,1.));
#459=DIRECTION('',(0.,1.,0.));
#460=DIRECTION('',(0.,0.,1.));
#461=DIRECTION('',(0.,0.,1.));
#462=DIRECTION('',(0.,1.,0.));
#463=DIRECTION('',(0.,0.,-1.));
#464=DIRECTION('',(0.,1.,0.));
#465=DIRECTION('',(0.,0.,-1.));
#466=DIRECTION('',(-1.,0.,0.));
#467=DIRECTION('',(0.,1.,0.));
#468=DIRECTION('',(-1.,0.,0.));
#469=DIRECTION('',(0.,1.,0.));
#470=DIRECTION('',(1.,0.,0.));
#471=DIRECTION('',(0.,1.,0.));
#472=DIRECTION('',(1.,0.,0.));
#473=DIRECTION('',(-1.,0.,0.));
#474=DIRECTION('',(0.,0.,-1.));
#475=DIRECTION('',(-1.,0.,0.));
#476=DIRECTION('',(0.,1.,0.));
#477=DIRECTION('',(-1.,0.,0.));
#478=DIRECTION('',(1.,0.,0.));
#479=DIRECTION('',(0.,1.,0.));
#480=DIRECTION('',(1.,0.,0.));
#481=DIRECTION('',(0.,1.,0.));
#482=DIRECTION('',(-1.,0.,0.));
#483=DIRECTION('',(0.,-1.,0.));
#484=DIRECTION('',(0.,0.,-1.));
#485=DIRECTION('',(0.,-1.,0.));
#486=DIRECTION('',(0.,0.,-1.));
#487=DIRECTION('',(0.,0.,-1.));
#488=DIRECTION('',(0.,-1.,0.));
#489=DIRECTION('',(0.,0.,-1.));
#490=DIRECTION('',(0.,1.,0.));
#491=DIRECTION('',(0.,0.,1.));
#492=DIRECTION('',(0.,0.,-1.));
#493=DIRECTION('',(0.,0.,-1.));
#494=DIRECTION('',(1.,0.,0.));
#495=DIRECTION('',(0.,1.,0.));
#496=DIRECTION('',(-1.,0.,0.));
#497=DIRECTION('',(0.,-1.,0.));
#498=DIRECTION('',(0.,1.,0.));
#499=DIRECTION('',(0.,0.,1.));
#500=DIRECTION('',(0.,1.,0.));
#501=DIRECTION('',(0.,0.,1.));
#502=DIRECTION('',(0.,0.,-1.));
#503=DIRECTION('',(0.,-1.,0.));
#504=DIRECTION('',(0.,0.,-1.));
#505=DIRECTION('',(0.,0.,1.));
#506=DIRECTION('',(0.,1.,0.));
#507=DIRECTION('',(0.,0.,1.));
#508=DIRECTION('',(0.,0.,-1.));
#509=DIRECTION('',(-1.,0.,0.));
#510=DIRECTION('',(0.,-1.,0.));
#511=DIRECTION('',(0.,0.,-1.));
#512=DIRECTION('',(-1.,0.,0.));
#513=DIRECTION('',(1.,0.,0.));
#514=DIRECTION('',(0.,1.,0.));
#515=DIRECTION('',(1.,0.,0.));
#516=DIRECTION('',(0.,1.,0.));
#517=DIRECTION('',(0.,0.,1.));
#518=DIRECTION('',(1.,0.,0.));
#519=DIRECTION('',(0.,0.,1.));
#520=DIRECTION('',(0.,0.,-1.));
#521=DIRECTION('',(-1.,0.,0.));
#522=DIRECTION('',(1.,0.,0.));
#523=DIRECTION('',(0.,1.,0.));
#524=DIRECTION('',(0.,1.,0.));
#525=DIRECTION('',(0.,0.,1.));
#526=DIRECTION('',(0.,0.,1.));
#527=DIRECTION('',(-1.,0.,0.));
#528=DIRECTION('',(0.,-1.,0.));
#529=DIRECTION('',(0.,0.,-1.));
#530=DIRECTION('',(-1.,0.,0.));
#531=DIRECTION('',(1.,0.,0.));
#532=DIRECTION('',(0.,1.,0.));
#533=DIRECTION('',(1.,0.,0.));
#534=DIRECTION('',(0.,1.,0.));
#535=DIRECTION('',(0.,0.,1.));
#536=DIRECTION('',(1.,0.,0.));
#537=DIRECTION('',(0.,0.,1.));
#538=DIRECTION('',(0.,0.,-1.));
#539=DIRECTION('',(-1.,0.,0.));
#540=DIRECTION('',(1.,0.,0.));
#541=DIRECTION('',(0.,1.,0.));
#542=DIRECTION('',(0.,1.,0.));
#543=DIRECTION('',(0.,0.,1.));
#544=DIRECTION('',(0.,0.,1.));
#545=DIRECTION('',(-1.,0.,0.));
#546=DIRECTION('',(0.,-1.,0.));
#547=DIRECTION('',(0.,1.,0.));
#548=DIRECTION('',(0.,0.,1.));
#549=DIRECTION('',(0.,-1.,0.));
#550=DIRECTION('',(0.,0.,-1.));
#551=DIRECTION('',(0.,-1.,0.));
#552=DIRECTION('',(1.,0.,0.));
#553=DIRECTION('',(0.,-1.,0.));
#554=DIRECTION('',(0.,0.,-1.));
#555=DIRECTION('',(0.,1.,0.));
#556=DIRECTION('',(0.,0.,1.));
#557=DIRECTION('',(0.,1.,0.));
#558=DIRECTION('',(-1.,0.,0.));
#559=CARTESIAN_POINT('',(0.,0.,0.));
#560=CARTESIAN_POINT('',(-0.007,0.0096331233596402,-0.135));
#561=CARTESIAN_POINT('',(-0.007,-0.0222279940303635,-0.146));
#562=CARTESIAN_POINT('',(-0.007,-0.0232279940303635,-0.146));
#563=CARTESIAN_POINT('',(-0.007,-0.0212279940303635,-0.146));
#564=CARTESIAN_POINT('',(-0.007,-0.0212279940303635,-0.141));
#565=CARTESIAN_POINT('',(-0.007,-0.0212279940303635,-0.136));
#566=CARTESIAN_POINT('',(-0.007,-0.0222279940303635,-0.136));
#567=CARTESIAN_POINT('',(-0.007,-0.0232279940303635,-0.136));
#568=CARTESIAN_POINT('',(-0.007,-0.0232279940303635,-0.141));
#569=CARTESIAN_POINT('',(-0.007,-0.0148765631368078,-0.141));
#570=CARTESIAN_POINT('',(-0.007,-0.0148765631368078,-0.147));
#571=CARTESIAN_POINT('',(-0.007,-0.0148765631368078,-0.135));
#572=CARTESIAN_POINT('',(-0.007,-0.00222799403036353,-0.147));
#573=CARTESIAN_POINT('',(-0.007,-0.100227994030363,-0.147));
#574=CARTESIAN_POINT('',(-0.007,-0.100227994030363,-0.141));
#575=CARTESIAN_POINT('',(-0.007,-0.100227994030363,-0.135));
#576=CARTESIAN_POINT('',(-0.007,-0.00222799403036353,-0.135));
#577=CARTESIAN_POINT('',(-0.007002,-0.00222799403036353,-0.147));
#578=CARTESIAN_POINT('',(0.005,-0.00222799403036353,-0.147));
#579=CARTESIAN_POINT('',(0.005,-0.0148765631368078,-0.147));
#580=CARTESIAN_POINT('',(0.005,0.0102720059696365,-0.147));
#581=CARTESIAN_POINT('',(0.005,0.0102720059696365,-0.147));
#582=CARTESIAN_POINT('',(-0.007,0.0102720059696365,-0.147));
#583=CARTESIAN_POINT('',(-0.007,-0.00222799403036353,-0.147));
#584=CARTESIAN_POINT('',(-0.007,0.0957720059696365,-0.147));
#585=CARTESIAN_POINT('',(-0.007002,0.0957720059696365,-0.147));
#586=CARTESIAN_POINT('',(0.007,0.0957720059696365,-0.147));
#587=CARTESIAN_POINT('',(0.007,-0.00222799403036353,-0.147));
#588=CARTESIAN_POINT('',(0.007,-0.100227994030363,-0.147));
#589=CARTESIAN_POINT('',(-0.007002,-0.100227994030363,-0.147));
#590=CARTESIAN_POINT('',(0.005,-0.0148765631368078,-0.147));
#591=CARTESIAN_POINT('',(-0.007002,-0.00222799403036353,-0.135));
#592=CARTESIAN_POINT('',(0.005,-0.00222799403036353,-0.135));
#593=CARTESIAN_POINT('',(0.005,-0.0148765631368078,-0.135));
#594=CARTESIAN_POINT('',(0.005,0.0102720059696365,-0.135));
#595=CARTESIAN_POINT('',(0.005,-0.0148765631368078,-0.135));
#596=CARTESIAN_POINT('',(-0.007002,-0.100227994030363,-0.135));
#597=CARTESIAN_POINT('',(0.007,-0.100227994030363,-0.135));
#598=CARTESIAN_POINT('',(0.007,-0.00222799403036353,-0.135));
#599=CARTESIAN_POINT('',(0.007,0.0957720059696365,-0.135));
#600=CARTESIAN_POINT('',(-0.007002,0.0957720059696365,-0.135));
#601=CARTESIAN_POINT('',(-0.007,0.0957720059696365,-0.135));
#602=CARTESIAN_POINT('',(-0.007,-0.00222799403036353,-0.135));
#603=CARTESIAN_POINT('',(-0.007,0.0102720059696365,-0.135));
#604=CARTESIAN_POINT('',(0.005,0.0102720059696365,-0.135));
#605=CARTESIAN_POINT('',(-0.007002,-0.100227994030363,-0.141));
#606=CARTESIAN_POINT('',(0.,-0.100227994030363,-0.141));
#607=CARTESIAN_POINT('',(0.,-0.100227994030363,-0.1425));
#608=CARTESIAN_POINT('',(0.007,-0.100227994030363,-0.141));
#609=CARTESIAN_POINT('',(-0.007002,0.0957720059696365,-0.141));
#610=CARTESIAN_POINT('',(0.,0.0957720059696365,-0.141));
#611=CARTESIAN_POINT('',(0.,0.0957720059696365,-0.1395));
#612=CARTESIAN_POINT('',(-0.007,0.0957720059696365,-0.141));
#613=CARTESIAN_POINT('',(0.007,0.0957720059696365,-0.141));
#614=CARTESIAN_POINT('',(0.007,-0.00222799403036353,-0.141));
#615=CARTESIAN_POINT('',(-0.007,0.0096331233596402,-0.135));
#616=CARTESIAN_POINT('',(-0.007,0.0177720059696365,-0.146));
#617=CARTESIAN_POINT('',(-0.007,0.0167720059696365,-0.146));
#618=CARTESIAN_POINT('',(-0.007,0.0187720059696365,-0.146));
#619=CARTESIAN_POINT('',(-0.007,0.0187720059696365,-0.141));
#620=CARTESIAN_POINT('',(-0.007,0.0187720059696365,-0.136));
#621=CARTESIAN_POINT('',(-0.007,0.0177720059696365,-0.136));
#622=CARTESIAN_POINT('',(-0.007,0.0167720059696365,-0.136));
#623=CARTESIAN_POINT('',(-0.007,0.0167720059696365,-0.141));
#624=CARTESIAN_POINT('',(-0.007,0.0102720059696365,-0.141));
#625=CARTESIAN_POINT('',(0.005,-0.0148765631368078,-0.141));
#626=CARTESIAN_POINT('',(0.005,-0.0148765631368078,-0.141));
#627=CARTESIAN_POINT('',(0.005,0.0102720059696365,-0.141));
#628=CARTESIAN_POINT('',(0.005,0.0102720059696365,-0.141));
#629=CARTESIAN_POINT('',(0.005,-0.00222799403036353,-0.14075));
#630=CARTESIAN_POINT('',(-0.013,0.0177720059696365,-0.146));
#631=CARTESIAN_POINT('',(-0.013,0.0167720059696365,-0.146));
#632=CARTESIAN_POINT('',(-0.013,0.0167720059696365,-0.146));
#633=CARTESIAN_POINT('',(-0.013,0.0177720059696365,-0.146));
#634=CARTESIAN_POINT('',(-0.013,0.0187720059696365,-0.146));
#635=CARTESIAN_POINT('',(-0.013,0.0187720059696365,-0.146));
#636=CARTESIAN_POINT('',(-0.013,0.0167720059696365,-0.141));
#637=CARTESIAN_POINT('',(-0.013,0.0167720059696365,-0.136));
#638=CARTESIAN_POINT('',(-0.013,0.0167720059696365,-0.136));
#639=CARTESIAN_POINT('',(-0.013,0.0167720059696365,-0.141));
#640=CARTESIAN_POINT('',(-0.013,0.0177720059696365,-0.136));
#641=CARTESIAN_POINT('',(-0.013,0.0187720059696365,-0.136));
#642=CARTESIAN_POINT('',(-0.013,0.0187720059696365,-0.136));
#643=CARTESIAN_POINT('',(-0.013,0.0177720059696365,-0.136));
#644=CARTESIAN_POINT('',(-0.013,0.0187720059696365,-0.141));
#645=CARTESIAN_POINT('',(-0.013,0.0187720059696365,-0.141));
#646=CARTESIAN_POINT('',(-0.013,-0.0407279940303635,-0.141));
#647=CARTESIAN_POINT('',(-0.013,-0.0222279940303635,-0.146));
#648=CARTESIAN_POINT('',(-0.013,-0.0232279940303635,-0.146));
#649=CARTESIAN_POINT('',(-0.013,-0.0232279940303635,-0.146));
#650=CARTESIAN_POINT('',(-0.013,-0.0222279940303635,-0.146));
#651=CARTESIAN_POINT('',(-0.013,-0.0212279940303635,-0.146));
#652=CARTESIAN_POINT('',(-0.013,-0.0212279940303635,-0.146));
#653=CARTESIAN_POINT('',(-0.013,-0.0232279940303635,-0.141));
#654=CARTESIAN_POINT('',(-0.013,-0.0232279940303635,-0.136));
#655=CARTESIAN_POINT('',(-0.013,-0.0232279940303635,-0.136));
#656=CARTESIAN_POINT('',(-0.013,-0.0232279940303635,-0.141));
#657=CARTESIAN_POINT('',(-0.013,-0.0222279940303635,-0.136));
#658=CARTESIAN_POINT('',(-0.013,-0.0212279940303635,-0.136));
#659=CARTESIAN_POINT('',(-0.013,-0.0212279940303635,-0.136));
#660=CARTESIAN_POINT('',(-0.013,-0.0222279940303635,-0.136));
#661=CARTESIAN_POINT('',(-0.013,-0.0212279940303635,-0.141));
#662=CARTESIAN_POINT('',(-0.013,-0.0212279940303635,-0.141));
#663=CARTESIAN_POINT('',(-0.013,-0.0407279940303635,-0.141));
#664=CARTESIAN_POINT('',(0.,-0.103227994030363,-0.141));
#665=CARTESIAN_POINT('',(0.,-0.103227994030363,-0.141));
#666=CARTESIAN_POINT('',(0.,-0.103227994030363,-0.1425));
#667=CARTESIAN_POINT('',(0.,-0.103227994030363,-0.141));
#668=CARTESIAN_POINT('',(0.,0.0987720059696365,-0.141));
#669=CARTESIAN_POINT('',(0.,0.0987720059696365,-0.141));
#670=CARTESIAN_POINT('',(0.,0.0987720059696365,-0.1395));
#671=CARTESIAN_POINT('',(0.,0.0987720059696365,-0.141));
#672=MECHANICAL_DESIGN_GEOMETRIC_PRESENTATION_REPRESENTATION('',(#413),
#673);
#673=(
GEOMETRIC_REPRESENTATION_CONTEXT(3)
GLOBAL_UNCERTAINTY_ASSIGNED_CONTEXT((#674))
GLOBAL_UNIT_ASSIGNED_CONTEXT((#677,#676,#675))
REPRESENTATION_CONTEXT('Part 4','TOP_LEVEL_ASSEMBLY_PART')
);
#674=UNCERTAINTY_MEASURE_WITH_UNIT(LENGTH_MEASURE(1.E-8),#677,
'DISTANCE_ACCURACY_VALUE','Maximum Tolerance applied to model');
#675=(
NAMED_UNIT(*)
SI_UNIT($,.STERADIAN.)
SOLID_ANGLE_UNIT()
);
#676=(
NAMED_UNIT(*)
PLANE_ANGLE_UNIT()
SI_UNIT($,.RADIAN.)
);
#677=(
LENGTH_UNIT()
NAMED_UNIT(*)
SI_UNIT($,.METRE.)
);
#678=PRODUCT_DEFINITION_SHAPE('','',#679);
#679=PRODUCT_DEFINITION('','',#681,#680);
#680=PRODUCT_DEFINITION_CONTEXT('',#687,'design');
#681=PRODUCT_DEFINITION_FORMATION_WITH_SPECIFIED_SOURCE('','',#683,
 .NOT_KNOWN.);
#682=PRODUCT_RELATED_PRODUCT_CATEGORY('','',(#683));
#683=PRODUCT('Part 4','Part 4','Part 4',(#685));
#684=PRODUCT_CATEGORY('','');
#685=PRODUCT_CONTEXT('',#687,'mechanical');
#686=APPLICATION_PROTOCOL_DEFINITION('international standard',
'ap242_managed_model_based_3d_engineering',2020,#687);
#687=APPLICATION_CONTEXT('managed model based 3d engineering');
ENDSEC;
END-ISO-10303-21;
