ISO-10303-21;
HEADER;
/* Generated by software containing ST-Developer
 * from STEP Tools, Inc. (www.steptools.com) 
 */
/* OPTION: using custom renumber hook */

FILE_DESCRIPTION(
/* description */ ('STEP AP242 Edition 2',
'CAx-IF Rec.Pracs.---Representation and Presentation of Product Manufa
cturing Information (PMI)---4.0---2014-10-13',
'CAx-IF Rec.Pracs.---3D Tessellated Geometry---0.4---2014-09-14','2;1',
'CAx-IF Rec.Pracs.---User Defined Attributes---1.5---2016-08-15'),
/* implementation_level */ '2;1');

FILE_NAME(
/* name */ 'Base - Part 3',
/* time_stamp */ '2026-08-21T13:36:47Z',
/* author */ (''),
/* organization */ (''),
/* preprocessor_version */ 'ST-DEVELOPER v20',
/* originating_system */ 'ONSHAPE BY PTC INC, 1.219',
/* authorisation */ '  ');

FILE_SCHEMA (('AP242_MANAGED_MODEL_BASED_3D_ENGINEERING_MIM_LF { 1 0 10303 442 3 1 4 }'));
ENDSEC;

DATA;
#10=SHAPE_REPRESENTATION_RELATIONSHIP('','',#531,#11);
#11=ADVANCED_BREP_SHAPE_REPRESENTATION('',(#529),#881);
#12=PLANE('',#536);
#13=PLANE('',#540);
#14=PLANE('',#541);
#15=PLANE('',#543);
#16=PLANE('',#547);
#17=PLANE('',#551);
#18=PLANE('',#552);
#19=PLANE('',#557);
#20=PLANE('',#558);
#21=PLANE('',#560);
#22=PLANE('',#564);
#23=PLANE('',#565);
#24=PLANE('',#567);
#25=PLANE('',#568);
#26=PLANE('',#569);
#27=PLANE('',#570);
#28=PLANE('',#573);
#29=PLANE('',#576);
#30=PLANE('',#579);
#31=PLANE('',#582);
#32=LINE('',#738,#80);
#33=LINE('',#742,#81);
#34=LINE('',#744,#82);
#35=LINE('',#746,#83);
#36=LINE('',#748,#84);
#37=LINE('',#754,#85);
#38=LINE('',#756,#86);
#39=LINE('',#758,#87);
#40=LINE('',#760,#88);
#41=LINE('',#764,#89);
#42=LINE('',#766,#90);
#43=LINE('',#768,#91);
#44=LINE('',#770,#92);
#45=LINE('',#772,#93);
#46=LINE('',#774,#94);
#47=LINE('',#780,#95);
#48=LINE('',#782,#96);
#49=LINE('',#784,#97);
#50=LINE('',#786,#98);
#51=LINE('',#792,#99);
#52=LINE('',#794,#100);
#53=LINE('',#796,#101);
#54=LINE('',#798,#102);
#55=LINE('',#802,#103);
#56=LINE('',#804,#104);
#57=LINE('',#806,#105);
#58=LINE('',#811,#106);
#59=LINE('',#815,#107);
#60=LINE('',#817,#108);
#61=LINE('',#819,#109);
#62=LINE('',#821,#110);
#63=LINE('',#825,#111);
#64=LINE('',#827,#112);
#65=LINE('',#829,#113);
#66=LINE('',#831,#114);
#67=LINE('',#833,#115);
#68=LINE('',#835,#116);
#69=LINE('',#841,#117);
#70=LINE('',#843,#118);
#71=LINE('',#845,#119);
#72=LINE('',#847,#120);
#73=LINE('',#851,#121);
#74=LINE('',#853,#122);
#75=LINE('',#855,#123);
#76=LINE('',#857,#124);
#77=LINE('',#858,#125);
#78=LINE('',#860,#126);
#79=LINE('',#861,#127);
#80=VECTOR('',#589,1.);
#81=VECTOR('',#592,1.);
#82=VECTOR('',#595,1.);
#83=VECTOR('',#596,1.);
#84=VECTOR('',#597,1.);
#85=VECTOR('',#604,1.);
#86=VECTOR('',#607,1.);
#87=VECTOR('',#608,1.);
#88=VECTOR('',#609,1.);
#89=VECTOR('',#614,1.);
#90=VECTOR('',#615,1.);
#91=VECTOR('',#616,1.);
#92=VECTOR('',#619,1.);
#93=VECTOR('',#620,1.);
#94=VECTOR('',#621,1.);
#95=VECTOR('',#628,1.);
#96=VECTOR('',#631,1.);
#97=VECTOR('',#632,1.);
#98=VECTOR('',#633,1.);
#99=VECTOR('',#640,1.);
#100=VECTOR('',#643,1.);
#101=VECTOR('',#644,1.);
#102=VECTOR('',#645,1.);
#103=VECTOR('',#650,1.);
#104=VECTOR('',#651,1.);
#105=VECTOR('',#652,1.);
#106=VECTOR('',#657,1.);
#107=VECTOR('',#660,1.);
#108=VECTOR('',#663,1.);
#109=VECTOR('',#664,1.);
#110=VECTOR('',#665,1.);
#111=VECTOR('',#670,1.);
#112=VECTOR('',#671,1.);
#113=VECTOR('',#672,1.);
#114=VECTOR('',#675,1.);
#115=VECTOR('',#676,1.);
#116=VECTOR('',#677,1.);
#117=VECTOR('',#684,1.);
#118=VECTOR('',#687,1.);
#119=VECTOR('',#688,1.);
#120=VECTOR('',#689,1.);
#121=VECTOR('',#694,1.);
#122=VECTOR('',#695,1.);
#123=VECTOR('',#696,1.);
#124=VECTOR('',#699,1.);
#125=VECTOR('',#700,1.);
#126=VECTOR('',#703,1.);
#127=VECTOR('',#704,1.);
#128=ORIENTED_EDGE('',*,*,#264,.F.);
#129=ORIENTED_EDGE('',*,*,#265,.F.);
#130=ORIENTED_EDGE('',*,*,#266,.T.);
#131=ORIENTED_EDGE('',*,*,#267,.T.);
#132=ORIENTED_EDGE('',*,*,#268,.T.);
#133=ORIENTED_EDGE('',*,*,#267,.F.);
#134=ORIENTED_EDGE('',*,*,#269,.F.);
#135=ORIENTED_EDGE('',*,*,#270,.T.);
#136=ORIENTED_EDGE('',*,*,#271,.T.);
#137=ORIENTED_EDGE('',*,*,#270,.F.);
#138=ORIENTED_EDGE('',*,*,#272,.F.);
#139=ORIENTED_EDGE('',*,*,#273,.T.);
#140=ORIENTED_EDGE('',*,*,#274,.T.);
#141=ORIENTED_EDGE('',*,*,#273,.F.);
#142=ORIENTED_EDGE('',*,*,#275,.F.);
#143=ORIENTED_EDGE('',*,*,#276,.T.);
#144=ORIENTED_EDGE('',*,*,#277,.F.);
#145=ORIENTED_EDGE('',*,*,#278,.T.);
#146=ORIENTED_EDGE('',*,*,#276,.F.);
#147=ORIENTED_EDGE('',*,*,#279,.F.);
#148=ORIENTED_EDGE('',*,*,#280,.T.);
#149=ORIENTED_EDGE('',*,*,#281,.T.);
#150=ORIENTED_EDGE('',*,*,#280,.F.);
#151=ORIENTED_EDGE('',*,*,#282,.F.);
#152=ORIENTED_EDGE('',*,*,#283,.T.);
#153=ORIENTED_EDGE('',*,*,#284,.T.);
#154=ORIENTED_EDGE('',*,*,#283,.F.);
#155=ORIENTED_EDGE('',*,*,#285,.F.);
#156=ORIENTED_EDGE('',*,*,#286,.T.);
#157=ORIENTED_EDGE('',*,*,#287,.F.);
#158=ORIENTED_EDGE('',*,*,#286,.F.);
#159=ORIENTED_EDGE('',*,*,#288,.T.);
#160=ORIENTED_EDGE('',*,*,#289,.T.);
#161=ORIENTED_EDGE('',*,*,#290,.F.);
#162=ORIENTED_EDGE('',*,*,#289,.F.);
#163=ORIENTED_EDGE('',*,*,#291,.T.);
#164=ORIENTED_EDGE('',*,*,#292,.T.);
#165=ORIENTED_EDGE('',*,*,#293,.T.);
#166=ORIENTED_EDGE('',*,*,#292,.F.);
#167=ORIENTED_EDGE('',*,*,#294,.F.);
#168=ORIENTED_EDGE('',*,*,#295,.T.);
#169=ORIENTED_EDGE('',*,*,#296,.F.);
#170=ORIENTED_EDGE('',*,*,#297,.T.);
#171=ORIENTED_EDGE('',*,*,#295,.F.);
#172=ORIENTED_EDGE('',*,*,#298,.F.);
#173=ORIENTED_EDGE('',*,*,#299,.T.);
#174=ORIENTED_EDGE('',*,*,#300,.F.);
#175=ORIENTED_EDGE('',*,*,#301,.F.);
#176=ORIENTED_EDGE('',*,*,#302,.T.);
#177=ORIENTED_EDGE('',*,*,#303,.T.);
#178=ORIENTED_EDGE('',*,*,#304,.F.);
#179=ORIENTED_EDGE('',*,*,#303,.F.);
#180=ORIENTED_EDGE('',*,*,#305,.T.);
#181=ORIENTED_EDGE('',*,*,#306,.T.);
#182=ORIENTED_EDGE('',*,*,#307,.F.);
#183=ORIENTED_EDGE('',*,*,#308,.F.);
#184=ORIENTED_EDGE('',*,*,#306,.F.);
#185=ORIENTED_EDGE('',*,*,#309,.T.);
#186=ORIENTED_EDGE('',*,*,#310,.T.);
#187=ORIENTED_EDGE('',*,*,#311,.F.);
#188=ORIENTED_EDGE('',*,*,#310,.F.);
#189=ORIENTED_EDGE('',*,*,#312,.T.);
#190=ORIENTED_EDGE('',*,*,#313,.T.);
#191=ORIENTED_EDGE('',*,*,#314,.F.);
#192=ORIENTED_EDGE('',*,*,#313,.F.);
#193=ORIENTED_EDGE('',*,*,#315,.T.);
#194=ORIENTED_EDGE('',*,*,#316,.T.);
#195=ORIENTED_EDGE('',*,*,#317,.T.);
#196=ORIENTED_EDGE('',*,*,#316,.F.);
#197=ORIENTED_EDGE('',*,*,#318,.F.);
#198=ORIENTED_EDGE('',*,*,#319,.T.);
#199=ORIENTED_EDGE('',*,*,#320,.F.);
#200=ORIENTED_EDGE('',*,*,#321,.T.);
#201=ORIENTED_EDGE('',*,*,#319,.F.);
#202=ORIENTED_EDGE('',*,*,#322,.F.);
#203=ORIENTED_EDGE('',*,*,#323,.T.);
#204=ORIENTED_EDGE('',*,*,#324,.T.);
#205=ORIENTED_EDGE('',*,*,#323,.F.);
#206=ORIENTED_EDGE('',*,*,#325,.F.);
#207=ORIENTED_EDGE('',*,*,#301,.T.);
#208=ORIENTED_EDGE('',*,*,#326,.T.);
#209=ORIENTED_EDGE('',*,*,#299,.F.);
#210=ORIENTED_EDGE('',*,*,#327,.F.);
#211=ORIENTED_EDGE('',*,*,#265,.T.);
#212=ORIENTED_EDGE('',*,*,#302,.F.);
#213=ORIENTED_EDGE('',*,*,#325,.T.);
#214=ORIENTED_EDGE('',*,*,#322,.T.);
#215=ORIENTED_EDGE('',*,*,#318,.T.);
#216=ORIENTED_EDGE('',*,*,#315,.F.);
#217=ORIENTED_EDGE('',*,*,#312,.F.);
#218=ORIENTED_EDGE('',*,*,#309,.F.);
#219=ORIENTED_EDGE('',*,*,#305,.F.);
#220=ORIENTED_EDGE('',*,*,#266,.F.);
#221=ORIENTED_EDGE('',*,*,#327,.T.);
#222=ORIENTED_EDGE('',*,*,#298,.T.);
#223=ORIENTED_EDGE('',*,*,#294,.T.);
#224=ORIENTED_EDGE('',*,*,#291,.F.);
#225=ORIENTED_EDGE('',*,*,#288,.F.);
#226=ORIENTED_EDGE('',*,*,#285,.T.);
#227=ORIENTED_EDGE('',*,*,#282,.T.);
#228=ORIENTED_EDGE('',*,*,#279,.T.);
#229=ORIENTED_EDGE('',*,*,#275,.T.);
#230=ORIENTED_EDGE('',*,*,#272,.T.);
#231=ORIENTED_EDGE('',*,*,#269,.T.);
#232=ORIENTED_EDGE('',*,*,#300,.T.);
#233=ORIENTED_EDGE('',*,*,#304,.T.);
#234=ORIENTED_EDGE('',*,*,#308,.T.);
#235=ORIENTED_EDGE('',*,*,#311,.T.);
#236=ORIENTED_EDGE('',*,*,#314,.T.);
#237=ORIENTED_EDGE('',*,*,#317,.F.);
#238=ORIENTED_EDGE('',*,*,#321,.F.);
#239=ORIENTED_EDGE('',*,*,#324,.F.);
#240=ORIENTED_EDGE('',*,*,#264,.T.);
#241=ORIENTED_EDGE('',*,*,#268,.F.);
#242=ORIENTED_EDGE('',*,*,#271,.F.);
#243=ORIENTED_EDGE('',*,*,#274,.F.);
#244=ORIENTED_EDGE('',*,*,#278,.F.);
#245=ORIENTED_EDGE('',*,*,#281,.F.);
#246=ORIENTED_EDGE('',*,*,#284,.F.);
#247=ORIENTED_EDGE('',*,*,#287,.T.);
#248=ORIENTED_EDGE('',*,*,#290,.T.);
#249=ORIENTED_EDGE('',*,*,#293,.F.);
#250=ORIENTED_EDGE('',*,*,#297,.F.);
#251=ORIENTED_EDGE('',*,*,#326,.F.);
#252=ORIENTED_EDGE('',*,*,#328,.F.);
#253=ORIENTED_EDGE('',*,*,#320,.T.);
#254=ORIENTED_EDGE('',*,*,#328,.T.);
#255=ORIENTED_EDGE('',*,*,#329,.F.);
#256=ORIENTED_EDGE('',*,*,#307,.T.);
#257=ORIENTED_EDGE('',*,*,#329,.T.);
#258=ORIENTED_EDGE('',*,*,#330,.F.);
#259=ORIENTED_EDGE('',*,*,#296,.T.);
#260=ORIENTED_EDGE('',*,*,#330,.T.);
#261=ORIENTED_EDGE('',*,*,#331,.F.);
#262=ORIENTED_EDGE('',*,*,#277,.T.);
#263=ORIENTED_EDGE('',*,*,#331,.T.);
#264=EDGE_CURVE('',#332,#333,#380,.T.);
#265=EDGE_CURVE('',#334,#332,#32,.T.);
#266=EDGE_CURVE('',#334,#335,#381,.T.);
#267=EDGE_CURVE('',#335,#333,#33,.T.);
#268=EDGE_CURVE('',#336,#333,#34,.T.);
#269=EDGE_CURVE('',#337,#335,#35,.T.);
#270=EDGE_CURVE('',#337,#336,#36,.T.);
#271=EDGE_CURVE('',#338,#336,#382,.T.);
#272=EDGE_CURVE('',#339,#337,#383,.T.);
#273=EDGE_CURVE('',#339,#338,#37,.T.);
#274=EDGE_CURVE('',#340,#338,#38,.T.);
#275=EDGE_CURVE('',#341,#339,#39,.T.);
#276=EDGE_CURVE('',#341,#340,#40,.T.);
#277=EDGE_CURVE('',#342,#342,#384,.T.);
#278=EDGE_CURVE('',#343,#340,#41,.T.);
#279=EDGE_CURVE('',#344,#341,#42,.T.);
#280=EDGE_CURVE('',#344,#343,#43,.T.);
#281=EDGE_CURVE('',#345,#343,#44,.T.);
#282=EDGE_CURVE('',#346,#344,#45,.T.);
#283=EDGE_CURVE('',#346,#345,#46,.T.);
#284=EDGE_CURVE('',#347,#345,#385,.T.);
#285=EDGE_CURVE('',#348,#346,#386,.T.);
#286=EDGE_CURVE('',#348,#347,#47,.T.);
#287=EDGE_CURVE('',#347,#349,#48,.T.);
#288=EDGE_CURVE('',#348,#350,#49,.T.);
#289=EDGE_CURVE('',#350,#349,#50,.T.);
#290=EDGE_CURVE('',#349,#351,#387,.T.);
#291=EDGE_CURVE('',#350,#352,#388,.T.);
#292=EDGE_CURVE('',#352,#351,#51,.T.);
#293=EDGE_CURVE('',#353,#351,#52,.T.);
#294=EDGE_CURVE('',#354,#352,#53,.T.);
#295=EDGE_CURVE('',#354,#353,#54,.T.);
#296=EDGE_CURVE('',#355,#355,#389,.T.);
#297=EDGE_CURVE('',#356,#353,#55,.T.);
#298=EDGE_CURVE('',#357,#354,#56,.T.);
#299=EDGE_CURVE('',#357,#356,#57,.T.);
#300=EDGE_CURVE('',#358,#359,#390,.T.);
#301=EDGE_CURVE('',#360,#358,#58,.T.);
#302=EDGE_CURVE('',#360,#361,#391,.T.);
#303=EDGE_CURVE('',#361,#359,#59,.T.);
#304=EDGE_CURVE('',#359,#362,#60,.T.);
#305=EDGE_CURVE('',#361,#363,#61,.T.);
#306=EDGE_CURVE('',#363,#362,#62,.T.);
#307=EDGE_CURVE('',#364,#364,#392,.T.);
#308=EDGE_CURVE('',#362,#365,#63,.T.);
#309=EDGE_CURVE('',#363,#366,#64,.T.);
#310=EDGE_CURVE('',#366,#365,#65,.T.);
#311=EDGE_CURVE('',#365,#367,#66,.T.);
#312=EDGE_CURVE('',#366,#368,#67,.T.);
#313=EDGE_CURVE('',#368,#367,#68,.T.);
#314=EDGE_CURVE('',#367,#369,#393,.T.);
#315=EDGE_CURVE('',#368,#370,#394,.T.);
#316=EDGE_CURVE('',#370,#369,#69,.T.);
#317=EDGE_CURVE('',#371,#369,#70,.T.);
#318=EDGE_CURVE('',#372,#370,#71,.T.);
#319=EDGE_CURVE('',#372,#371,#72,.T.);
#320=EDGE_CURVE('',#373,#373,#395,.T.);
#321=EDGE_CURVE('',#374,#371,#73,.T.);
#322=EDGE_CURVE('',#375,#372,#74,.T.);
#323=EDGE_CURVE('',#375,#374,#75,.T.);
#324=EDGE_CURVE('',#358,#374,#76,.T.);
#325=EDGE_CURVE('',#360,#375,#77,.T.);
#326=EDGE_CURVE('',#332,#356,#78,.T.);
#327=EDGE_CURVE('',#334,#357,#79,.T.);
#328=EDGE_CURVE('',#376,#376,#396,.T.);
#329=EDGE_CURVE('',#377,#377,#397,.T.);
#330=EDGE_CURVE('',#378,#378,#398,.T.);
#331=EDGE_CURVE('',#379,#379,#399,.T.);
#332=VERTEX_POINT('',#736);
#333=VERTEX_POINT('',#737);
#334=VERTEX_POINT('',#739);
#335=VERTEX_POINT('',#741);
#336=VERTEX_POINT('',#745);
#337=VERTEX_POINT('',#747);
#338=VERTEX_POINT('',#751);
#339=VERTEX_POINT('',#753);
#340=VERTEX_POINT('',#757);
#341=VERTEX_POINT('',#759);
#342=VERTEX_POINT('',#763);
#343=VERTEX_POINT('',#765);
#344=VERTEX_POINT('',#767);
#345=VERTEX_POINT('',#771);
#346=VERTEX_POINT('',#773);
#347=VERTEX_POINT('',#777);
#348=VERTEX_POINT('',#779);
#349=VERTEX_POINT('',#783);
#350=VERTEX_POINT('',#785);
#351=VERTEX_POINT('',#789);
#352=VERTEX_POINT('',#791);
#353=VERTEX_POINT('',#795);
#354=VERTEX_POINT('',#797);
#355=VERTEX_POINT('',#801);
#356=VERTEX_POINT('',#803);
#357=VERTEX_POINT('',#805);
#358=VERTEX_POINT('',#809);
#359=VERTEX_POINT('',#810);
#360=VERTEX_POINT('',#812);
#361=VERTEX_POINT('',#814);
#362=VERTEX_POINT('',#818);
#363=VERTEX_POINT('',#820);
#364=VERTEX_POINT('',#824);
#365=VERTEX_POINT('',#826);
#366=VERTEX_POINT('',#828);
#367=VERTEX_POINT('',#832);
#368=VERTEX_POINT('',#834);
#369=VERTEX_POINT('',#838);
#370=VERTEX_POINT('',#840);
#371=VERTEX_POINT('',#844);
#372=VERTEX_POINT('',#846);
#373=VERTEX_POINT('',#850);
#374=VERTEX_POINT('',#852);
#375=VERTEX_POINT('',#854);
#376=VERTEX_POINT('',#866);
#377=VERTEX_POINT('',#870);
#378=VERTEX_POINT('',#874);
#379=VERTEX_POINT('',#878);
#380=CIRCLE('',#534,0.0995);
#381=CIRCLE('',#535,0.0995);
#382=CIRCLE('',#538,0.0995);
#383=CIRCLE('',#539,0.0995);
#384=CIRCLE('',#542,0.005);
#385=CIRCLE('',#545,0.0995);
#386=CIRCLE('',#546,0.0995);
#387=CIRCLE('',#549,0.0995);
#388=CIRCLE('',#550,0.0995);
#389=CIRCLE('',#553,0.005);
#390=CIRCLE('',#555,0.104);
#391=CIRCLE('',#556,0.104);
#392=CIRCLE('',#559,0.0015);
#393=CIRCLE('',#562,0.104);
#394=CIRCLE('',#563,0.104);
#395=CIRCLE('',#566,0.0015);
#396=CIRCLE('',#572,0.0015);
#397=CIRCLE('',#575,0.0015);
#398=CIRCLE('',#578,0.005);
#399=CIRCLE('',#581,0.005);
#400=EDGE_LOOP('',(#128,#129,#130,#131));
#401=EDGE_LOOP('',(#132,#133,#134,#135));
#402=EDGE_LOOP('',(#136,#137,#138,#139));
#403=EDGE_LOOP('',(#140,#141,#142,#143));
#404=EDGE_LOOP('',(#144));
#405=EDGE_LOOP('',(#145,#146,#147,#148));
#406=EDGE_LOOP('',(#149,#150,#151,#152));
#407=EDGE_LOOP('',(#153,#154,#155,#156));
#408=EDGE_LOOP('',(#157,#158,#159,#160));
#409=EDGE_LOOP('',(#161,#162,#163,#164));
#410=EDGE_LOOP('',(#165,#166,#167,#168));
#411=EDGE_LOOP('',(#169));
#412=EDGE_LOOP('',(#170,#171,#172,#173));
#413=EDGE_LOOP('',(#174,#175,#176,#177));
#414=EDGE_LOOP('',(#178,#179,#180,#181));
#415=EDGE_LOOP('',(#182));
#416=EDGE_LOOP('',(#183,#184,#185,#186));
#417=EDGE_LOOP('',(#187,#188,#189,#190));
#418=EDGE_LOOP('',(#191,#192,#193,#194));
#419=EDGE_LOOP('',(#195,#196,#197,#198));
#420=EDGE_LOOP('',(#199));
#421=EDGE_LOOP('',(#200,#201,#202,#203));
#422=EDGE_LOOP('',(#204,#205,#206,#207));
#423=EDGE_LOOP('',(#208,#209,#210,#211));
#424=EDGE_LOOP('',(#212,#213,#214,#215,#216,#217,#218,#219));
#425=EDGE_LOOP('',(#220,#221,#222,#223,#224,#225,#226,#227,#228,#229,#230,
#231));
#426=EDGE_LOOP('',(#232,#233,#234,#235,#236,#237,#238,#239));
#427=EDGE_LOOP('',(#240,#241,#242,#243,#244,#245,#246,#247,#248,#249,#250,
#251));
#428=EDGE_LOOP('',(#252));
#429=EDGE_LOOP('',(#253));
#430=EDGE_LOOP('',(#254));
#431=EDGE_LOOP('',(#255));
#432=EDGE_LOOP('',(#256));
#433=EDGE_LOOP('',(#257));
#434=EDGE_LOOP('',(#258));
#435=EDGE_LOOP('',(#259));
#436=EDGE_LOOP('',(#260));
#437=EDGE_LOOP('',(#261));
#438=EDGE_LOOP('',(#262));
#439=EDGE_LOOP('',(#263));
#440=FACE_BOUND('',#400,.T.);
#441=FACE_BOUND('',#401,.T.);
#442=FACE_BOUND('',#402,.T.);
#443=FACE_BOUND('',#403,.T.);
#444=FACE_BOUND('',#404,.T.);
#445=FACE_BOUND('',#405,.T.);
#446=FACE_BOUND('',#406,.T.);
#447=FACE_BOUND('',#407,.T.);
#448=FACE_BOUND('',#408,.T.);
#449=FACE_BOUND('',#409,.T.);
#450=FACE_BOUND('',#410,.T.);
#451=FACE_BOUND('',#411,.T.);
#452=FACE_BOUND('',#412,.T.);
#453=FACE_BOUND('',#413,.T.);
#454=FACE_BOUND('',#414,.T.);
#455=FACE_BOUND('',#415,.T.);
#456=FACE_BOUND('',#416,.T.);
#457=FACE_BOUND('',#417,.T.);
#458=FACE_BOUND('',#418,.T.);
#459=FACE_BOUND('',#419,.T.);
#460=FACE_BOUND('',#420,.T.);
#461=FACE_BOUND('',#421,.T.);
#462=FACE_BOUND('',#422,.T.);
#463=FACE_BOUND('',#423,.T.);
#464=FACE_BOUND('',#424,.T.);
#465=FACE_BOUND('',#425,.T.);
#466=FACE_BOUND('',#426,.T.);
#467=FACE_BOUND('',#427,.T.);
#468=FACE_BOUND('',#428,.T.);
#469=FACE_BOUND('',#429,.T.);
#470=FACE_BOUND('',#430,.T.);
#471=FACE_BOUND('',#431,.T.);
#472=FACE_BOUND('',#432,.T.);
#473=FACE_BOUND('',#433,.T.);
#474=FACE_BOUND('',#434,.T.);
#475=FACE_BOUND('',#435,.T.);
#476=FACE_BOUND('',#436,.T.);
#477=FACE_BOUND('',#437,.T.);
#478=FACE_BOUND('',#438,.T.);
#479=FACE_BOUND('',#439,.T.);
#480=CYLINDRICAL_SURFACE('',#533,0.0995);
#481=CYLINDRICAL_SURFACE('',#537,0.0995);
#482=CYLINDRICAL_SURFACE('',#544,0.0995);
#483=CYLINDRICAL_SURFACE('',#548,0.0995);
#484=CYLINDRICAL_SURFACE('',#554,0.104);
#485=CYLINDRICAL_SURFACE('',#561,0.104);
#486=CYLINDRICAL_SURFACE('',#571,0.0015);
#487=CYLINDRICAL_SURFACE('',#574,0.0015);
#488=CYLINDRICAL_SURFACE('',#577,0.005);
#489=CYLINDRICAL_SURFACE('',#580,0.005);
#490=ADVANCED_FACE('',(#440),#480,.F.);
#491=ADVANCED_FACE('',(#441),#12,.F.);
#492=ADVANCED_FACE('',(#442),#481,.F.);
#493=ADVANCED_FACE('',(#443),#13,.F.);
#494=ADVANCED_FACE('',(#444,#445),#14,.F.);
#495=ADVANCED_FACE('',(#446),#15,.F.);
#496=ADVANCED_FACE('',(#447),#482,.F.);
#497=ADVANCED_FACE('',(#448),#16,.T.);
#498=ADVANCED_FACE('',(#449),#483,.F.);
#499=ADVANCED_FACE('',(#450),#17,.F.);
#500=ADVANCED_FACE('',(#451,#452),#18,.F.);
#501=ADVANCED_FACE('',(#453),#484,.T.);
#502=ADVANCED_FACE('',(#454),#19,.T.);
#503=ADVANCED_FACE('',(#455,#456),#20,.T.);
#504=ADVANCED_FACE('',(#457),#21,.T.);
#505=ADVANCED_FACE('',(#458),#485,.T.);
#506=ADVANCED_FACE('',(#459),#22,.F.);
#507=ADVANCED_FACE('',(#460,#461),#23,.F.);
#508=ADVANCED_FACE('',(#462),#24,.F.);
#509=ADVANCED_FACE('',(#463),#25,.F.);
#510=ADVANCED_FACE('',(#464,#465),#26,.F.);
#511=ADVANCED_FACE('',(#466,#467),#27,.T.);
#512=ADVANCED_FACE('',(#468,#469),#486,.T.);
#513=ADVANCED_FACE('',(#470),#28,.T.);
#514=ADVANCED_FACE('',(#471,#472),#487,.T.);
#515=ADVANCED_FACE('',(#473),#29,.T.);
#516=ADVANCED_FACE('',(#474,#475),#488,.F.);
#517=ADVANCED_FACE('',(#476),#30,.T.);
#518=ADVANCED_FACE('',(#477,#478),#489,.F.);
#519=ADVANCED_FACE('',(#479),#31,.T.);
#520=CLOSED_SHELL('',(#490,#491,#492,#493,#494,#495,#496,#497,#498,#499,
#500,#501,#502,#503,#504,#505,#506,#507,#508,#509,#510,#511,#512,#513,#514,
#515,#516,#517,#518,#519));
#521=STYLED_ITEM('',(#522),#529);
#522=PRESENTATION_STYLE_ASSIGNMENT((#523));
#523=SURFACE_STYLE_USAGE(.BOTH.,#524);
#524=SURFACE_SIDE_STYLE('',(#525));
#525=SURFACE_STYLE_FILL_AREA(#526);
#526=FILL_AREA_STYLE('',(#527));
#527=FILL_AREA_STYLE_COLOUR('',#528);
#528=COLOUR_RGB('',0.231372549019608,0.380392156862745,0.705882352941177);
#529=MANIFOLD_SOLID_BREP('Part 3',#520);
#530=SHAPE_DEFINITION_REPRESENTATION(#886,#531);
#531=SHAPE_REPRESENTATION('Part 3',(#532),#881);
#532=AXIS2_PLACEMENT_3D('',#733,#583,#584);
#533=AXIS2_PLACEMENT_3D('',#734,#585,#586);
#534=AXIS2_PLACEMENT_3D('',#735,#587,#588);
#535=AXIS2_PLACEMENT_3D('',#740,#590,#591);
#536=AXIS2_PLACEMENT_3D('',#743,#593,#594);
#537=AXIS2_PLACEMENT_3D('',#749,#598,#599);
#538=AXIS2_PLACEMENT_3D('',#750,#600,#601);
#539=AXIS2_PLACEMENT_3D('',#752,#602,#603);
#540=AXIS2_PLACEMENT_3D('',#755,#605,#606);
#541=AXIS2_PLACEMENT_3D('',#761,#610,#611);
#542=AXIS2_PLACEMENT_3D('',#762,#612,#613);
#543=AXIS2_PLACEMENT_3D('',#769,#617,#618);
#544=AXIS2_PLACEMENT_3D('',#775,#622,#623);
#545=AXIS2_PLACEMENT_3D('',#776,#624,#625);
#546=AXIS2_PLACEMENT_3D('',#778,#626,#627);
#547=AXIS2_PLACEMENT_3D('',#781,#629,#630);
#548=AXIS2_PLACEMENT_3D('',#787,#634,#635);
#549=AXIS2_PLACEMENT_3D('',#788,#636,#637);
#550=AXIS2_PLACEMENT_3D('',#790,#638,#639);
#551=AXIS2_PLACEMENT_3D('',#793,#641,#642);
#552=AXIS2_PLACEMENT_3D('',#799,#646,#647);
#553=AXIS2_PLACEMENT_3D('',#800,#648,#649);
#554=AXIS2_PLACEMENT_3D('',#807,#653,#654);
#555=AXIS2_PLACEMENT_3D('',#808,#655,#656);
#556=AXIS2_PLACEMENT_3D('',#813,#658,#659);
#557=AXIS2_PLACEMENT_3D('',#816,#661,#662);
#558=AXIS2_PLACEMENT_3D('',#822,#666,#667);
#559=AXIS2_PLACEMENT_3D('',#823,#668,#669);
#560=AXIS2_PLACEMENT_3D('',#830,#673,#674);
#561=AXIS2_PLACEMENT_3D('',#836,#678,#679);
#562=AXIS2_PLACEMENT_3D('',#837,#680,#681);
#563=AXIS2_PLACEMENT_3D('',#839,#682,#683);
#564=AXIS2_PLACEMENT_3D('',#842,#685,#686);
#565=AXIS2_PLACEMENT_3D('',#848,#690,#691);
#566=AXIS2_PLACEMENT_3D('',#849,#692,#693);
#567=AXIS2_PLACEMENT_3D('',#856,#697,#698);
#568=AXIS2_PLACEMENT_3D('',#859,#701,#702);
#569=AXIS2_PLACEMENT_3D('',#862,#705,#706);
#570=AXIS2_PLACEMENT_3D('',#863,#707,#708);
#571=AXIS2_PLACEMENT_3D('',#864,#709,#710);
#572=AXIS2_PLACEMENT_3D('',#865,#711,#712);
#573=AXIS2_PLACEMENT_3D('',#867,#713,#714);
#574=AXIS2_PLACEMENT_3D('',#868,#715,#716);
#575=AXIS2_PLACEMENT_3D('',#869,#717,#718);
#576=AXIS2_PLACEMENT_3D('',#871,#719,#720);
#577=AXIS2_PLACEMENT_3D('',#872,#721,#722);
#578=AXIS2_PLACEMENT_3D('',#873,#723,#724);
#579=AXIS2_PLACEMENT_3D('',#875,#725,#726);
#580=AXIS2_PLACEMENT_3D('',#876,#727,#728);
#581=AXIS2_PLACEMENT_3D('',#877,#729,#730);
#582=AXIS2_PLACEMENT_3D('',#879,#731,#732);
#583=DIRECTION('',(0.,0.,1.));
#584=DIRECTION('',(1.,0.,0.));
#585=DIRECTION('',(-1.,0.,0.));
#586=DIRECTION('',(0.,0.,1.));
#587=DIRECTION('',(1.,0.,0.));
#588=DIRECTION('',(0.,0.,1.));
#589=DIRECTION('',(-1.,0.,0.));
#590=DIRECTION('',(1.,0.,0.));
#591=DIRECTION('',(0.,0.,1.));
#592=DIRECTION('',(-1.,0.,0.));
#593=DIRECTION('',(0.,-1.,0.));
#594=DIRECTION('',(0.,0.,-1.));
#595=DIRECTION('',(0.,0.,1.));
#596=DIRECTION('',(0.,0.,1.));
#597=DIRECTION('',(-1.,0.,0.));
#598=DIRECTION('',(-1.,0.,0.));
#599=DIRECTION('',(0.,0.,1.));
#600=DIRECTION('',(-1.,0.,0.));
#601=DIRECTION('',(0.,0.,1.));
#602=DIRECTION('',(-1.,0.,0.));
#603=DIRECTION('',(0.,0.,1.));
#604=DIRECTION('',(-1.,0.,0.));
#605=DIRECTION('',(0.,1.,0.));
#606=DIRECTION('',(0.,0.,1.));
#607=DIRECTION('',(0.,0.,-1.));
#608=DIRECTION('',(0.,0.,-1.));
#609=DIRECTION('',(-1.,0.,0.));
#610=DIRECTION('',(0.,-0.011687229512996,-0.999931702000847));
#611=DIRECTION('',(0.,0.999931702000847,-0.011687229512996));
#612=DIRECTION('',(0.,0.011687229512996,0.999931702000847));
#613=DIRECTION('',(0.,-0.999931702000847,0.011687229512996));
#614=DIRECTION('',(0.,-0.999931702000847,0.011687229512996));
#615=DIRECTION('',(0.,-0.999931702000847,0.011687229512996));
#616=DIRECTION('',(-1.,0.,0.));
#617=DIRECTION('',(0.,-1.,0.));
#618=DIRECTION('',(0.,0.,-1.));
#619=DIRECTION('',(0.,0.,1.));
#620=DIRECTION('',(0.,0.,1.));
#621=DIRECTION('',(-1.,0.,0.));
#622=DIRECTION('',(-1.,0.,0.));
#623=DIRECTION('',(0.,0.,1.));
#624=DIRECTION('',(-1.,0.,0.));
#625=DIRECTION('',(0.,0.,1.));
#626=DIRECTION('',(-1.,0.,0.));
#627=DIRECTION('',(0.,0.,1.));
#628=DIRECTION('',(-1.,0.,0.));
#629=DIRECTION('',(0.,-1.,0.));
#630=DIRECTION('',(0.,0.,-1.));
#631=DIRECTION('',(0.,0.,1.));
#632=DIRECTION('',(0.,0.,1.));
#633=DIRECTION('',(-1.,0.,0.));
#634=DIRECTION('',(-1.,0.,0.));
#635=DIRECTION('',(0.,0.,1.));
#636=DIRECTION('',(1.,0.,0.));
#637=DIRECTION('',(0.,0.,1.));
#638=DIRECTION('',(1.,0.,0.));
#639=DIRECTION('',(0.,0.,1.));
#640=DIRECTION('',(-1.,0.,0.));
#641=DIRECTION('',(0.,-1.,0.));
#642=DIRECTION('',(0.,0.,-1.));
#643=DIRECTION('',(0.,0.,1.));
#644=DIRECTION('',(0.,0.,1.));
#645=DIRECTION('',(-1.,0.,0.));
#646=DIRECTION('',(0.,0.,1.));
#647=DIRECTION('',(1.,0.,0.));
#648=DIRECTION('',(0.,0.,-1.));
#649=DIRECTION('',(-1.,0.,0.));
#650=DIRECTION('',(0.,1.,0.));
#651=DIRECTION('',(0.,1.,0.));
#652=DIRECTION('',(-1.,0.,0.));
#653=DIRECTION('',(-1.,0.,0.));
#654=DIRECTION('',(0.,0.,1.));
#655=DIRECTION('',(-1.,0.,0.));
#656=DIRECTION('',(0.,0.,1.));
#657=DIRECTION('',(-1.,0.,0.));
#658=DIRECTION('',(-1.,0.,0.));
#659=DIRECTION('',(0.,0.,1.));
#660=DIRECTION('',(-1.,0.,0.));
#661=DIRECTION('',(0.,0.,1.));
#662=DIRECTION('',(1.,0.,0.));
#663=DIRECTION('',(0.,1.,0.));
#664=DIRECTION('',(0.,1.,0.));
#665=DIRECTION('',(-1.,0.,0.));
#666=DIRECTION('',(0.,1.,0.));
#667=DIRECTION('',(0.,0.,1.));
#668=DIRECTION('',(0.,1.,0.));
#669=DIRECTION('',(0.,0.,1.));
#670=DIRECTION('',(0.,0.,-1.));
#671=DIRECTION('',(0.,0.,-1.));
#672=DIRECTION('',(-1.,0.,0.));
#673=DIRECTION('',(0.,0.,-1.));
#674=DIRECTION('',(-1.,0.,0.));
#675=DIRECTION('',(0.,-1.,0.));
#676=DIRECTION('',(0.,-1.,0.));
#677=DIRECTION('',(-1.,0.,0.));
#678=DIRECTION('',(-1.,0.,0.));
#679=DIRECTION('',(0.,0.,1.));
#680=DIRECTION('',(-1.,0.,0.));
#681=DIRECTION('',(0.,0.,1.));
#682=DIRECTION('',(-1.,0.,0.));
#683=DIRECTION('',(0.,0.,1.));
#684=DIRECTION('',(-1.,0.,0.));
#685=DIRECTION('',(0.,0.,1.));
#686=DIRECTION('',(1.,0.,0.));
#687=DIRECTION('',(0.,1.,0.));
#688=DIRECTION('',(0.,1.,0.));
#689=DIRECTION('',(-1.,0.,0.));
#690=DIRECTION('',(0.,1.,0.));
#691=DIRECTION('',(0.,0.,1.));
#692=DIRECTION('',(0.,-1.,0.));
#693=DIRECTION('',(0.,0.,-1.));
#694=DIRECTION('',(0.,0.,-1.));
#695=DIRECTION('',(0.,0.,-1.));
#696=DIRECTION('',(-1.,0.,0.));
#697=DIRECTION('',(0.,0.,-1.));
#698=DIRECTION('',(-1.,0.,0.));
#699=DIRECTION('',(0.,-1.,0.));
#700=DIRECTION('',(0.,-1.,0.));
#701=DIRECTION('',(0.,1.,0.));
#702=DIRECTION('',(0.,0.,1.));
#703=DIRECTION('',(0.,0.,-1.));
#704=DIRECTION('',(0.,0.,-1.));
#705=DIRECTION('',(-1.,0.,0.));
#706=DIRECTION('',(0.,-1.,0.));
#707=DIRECTION('',(-1.,0.,0.));
#708=DIRECTION('',(0.,-1.,0.));
#709=DIRECTION('',(0.,1.,0.));
#710=DIRECTION('',(0.,0.,1.));
#711=DIRECTION('',(0.,-1.,0.));
#712=DIRECTION('',(0.,0.,-1.));
#713=DIRECTION('',(0.,-1.,0.));
#714=DIRECTION('',(1.,0.,0.));
#715=DIRECTION('',(0.,-1.,0.));
#716=DIRECTION('',(0.,0.,-1.));
#717=DIRECTION('',(0.,1.,0.));
#718=DIRECTION('',(0.,0.,1.));
#719=DIRECTION('',(0.,1.,0.));
#720=DIRECTION('',(-1.,0.,0.));
#721=DIRECTION('',(0.,0.,-1.));
#722=DIRECTION('',(-1.,0.,0.));
#723=DIRECTION('',(0.,0.,-1.));
#724=DIRECTION('',(-1.,0.,0.));
#725=DIRECTION('',(0.,0.,-1.));
#726=DIRECTION('',(1.,0.,0.));
#727=DIRECTION('',(0.,0.011687229512996,0.999931702000847));
#728=DIRECTION('',(0.,-0.999931702000847,0.011687229512996));
#729=DIRECTION('',(0.,0.011687229512996,0.999931702000847));
#730=DIRECTION('',(0.,-0.999931702000847,0.011687229512996));
#731=DIRECTION('',(0.,0.011687229512996,0.999931702000847));
#732=DIRECTION('',(1.,0.,0.));
#733=CARTESIAN_POINT('',(0.,0.,0.));
#734=CARTESIAN_POINT('',(0.007,-0.00222799403036353,-0.141));
#735=CARTESIAN_POINT('',(-0.007,-0.00222799403036353,-0.141));
#736=CARTESIAN_POINT('',(-0.007,-0.00822799403036351,-0.0416810692767991));
#737=CARTESIAN_POINT('',(-0.007,-0.101546924753564,-0.135));
#738=CARTESIAN_POINT('',(0.007,-0.00822799403036351,-0.0416810692767991));
#739=CARTESIAN_POINT('',(0.007,-0.00822799403036351,-0.0416810692767991));
#740=CARTESIAN_POINT('',(0.007,-0.00222799403036353,-0.141));
#741=CARTESIAN_POINT('',(0.007,-0.101546924753564,-0.135));
#742=CARTESIAN_POINT('',(0.007,-0.101546924753564,-0.135));
#743=CARTESIAN_POINT('',(0.007,-0.101546924753564,-0.141));
#744=CARTESIAN_POINT('',(-0.007,-0.101546924753564,-0.141));
#745=CARTESIAN_POINT('',(-0.007,-0.101546924753564,-0.147));
#746=CARTESIAN_POINT('',(0.007,-0.101546924753564,-0.141));
#747=CARTESIAN_POINT('',(0.007,-0.101546924753564,-0.147));
#748=CARTESIAN_POINT('',(0.007,-0.101546924753564,-0.147));
#749=CARTESIAN_POINT('',(0.007,-0.00222799403036358,-0.141));
#750=CARTESIAN_POINT('',(-0.007,-0.00222799403036358,-0.141));
#751=CARTESIAN_POINT('',(-0.007,-0.0112287402061153,-0.240092061075949));
#752=CARTESIAN_POINT('',(0.007,-0.00222799403036358,-0.141));
#753=CARTESIAN_POINT('',(0.007,-0.0112287402061153,-0.240092061075949));
#754=CARTESIAN_POINT('',(0.007,-0.0112287402061153,-0.240092061075949));
#755=CARTESIAN_POINT('',(0.007,-0.0112287402061153,-0.23985092067462));
#756=CARTESIAN_POINT('',(-0.007,-0.0112287402061153,-0.23985092067462));
#757=CARTESIAN_POINT('',(-0.007,-0.0112287402061153,-0.239609780273291));
#758=CARTESIAN_POINT('',(0.007,-0.0112287402061153,-0.23985092067462));
#759=CARTESIAN_POINT('',(0.007,-0.0112287402061153,-0.239609780273291));
#760=CARTESIAN_POINT('',(0.007,-0.0112287402061153,-0.239609780273291));
#761=CARTESIAN_POINT('',(0.007,-0.00344005203331514,-0.23970081467704));
#762=CARTESIAN_POINT('',(0.,-0.00280171698423797,-0.239708275554827));
#763=CARTESIAN_POINT('',(0.,-0.0078013754942422,-0.239649839407263));
#764=CARTESIAN_POINT('',(-0.007,-0.00344005203331514,-0.23970081467704));
#765=CARTESIAN_POINT('',(-0.007,0.00434863613948498,-0.239791849080788));
#766=CARTESIAN_POINT('',(0.007,-0.00344005203331514,-0.23970081467704));
#767=CARTESIAN_POINT('',(0.007,0.00434863613948498,-0.239791849080788));
#768=CARTESIAN_POINT('',(0.007,0.00434863613948498,-0.239791849080788));
#769=CARTESIAN_POINT('',(0.007,0.00434863613948498,-0.240037132058969));
#770=CARTESIAN_POINT('',(-0.007,0.00434863613948498,-0.240037132058969));
#771=CARTESIAN_POINT('',(-0.007,0.00434863613948498,-0.240282415037151));
#772=CARTESIAN_POINT('',(0.007,0.00434863613948498,-0.240037132058969));
#773=CARTESIAN_POINT('',(0.007,0.00434863613948498,-0.240282415037151));
#774=CARTESIAN_POINT('',(0.007,0.00434863613948498,-0.240282415037151));
#775=CARTESIAN_POINT('',(0.007,-0.00222799403036358,-0.141));
#776=CARTESIAN_POINT('',(-0.007,-0.00222799403036358,-0.141));
#777=CARTESIAN_POINT('',(-0.007,0.0970909366928375,-0.147));
#778=CARTESIAN_POINT('',(0.007,-0.00222799403036358,-0.141));
#779=CARTESIAN_POINT('',(0.007,0.0970909366928375,-0.147));
#780=CARTESIAN_POINT('',(0.007,0.0970909366928375,-0.147));
#781=CARTESIAN_POINT('',(0.007,0.0970909366928375,-0.141));
#782=CARTESIAN_POINT('',(-0.007,0.0970909366928375,-0.141));
#783=CARTESIAN_POINT('',(-0.007,0.0970909366928375,-0.135));
#784=CARTESIAN_POINT('',(0.007,0.0970909366928375,-0.141));
#785=CARTESIAN_POINT('',(0.007,0.0970909366928375,-0.135));
#786=CARTESIAN_POINT('',(0.007,0.0970909366928375,-0.135));
#787=CARTESIAN_POINT('',(0.007,-0.00222799403036354,-0.141));
#788=CARTESIAN_POINT('',(-0.007,-0.00222799403036354,-0.141));
#789=CARTESIAN_POINT('',(-0.007,0.00377200596963647,-0.0416810692767991));
#790=CARTESIAN_POINT('',(0.007,-0.00222799403036354,-0.141));
#791=CARTESIAN_POINT('',(0.007,0.00377200596963647,-0.0416810692767991));
#792=CARTESIAN_POINT('',(0.007,0.00377200596963647,-0.0416810692767991));
#793=CARTESIAN_POINT('',(0.007,0.00377200596963647,-0.0419271452287299));
#794=CARTESIAN_POINT('',(-0.007,0.00377200596963647,-0.0419271452287299));
#795=CARTESIAN_POINT('',(-0.007,0.00377200596963647,-0.0421732211806607));
#796=CARTESIAN_POINT('',(0.007,0.00377200596963647,-0.0419271452287299));
#797=CARTESIAN_POINT('',(0.007,0.00377200596963647,-0.0421732211806607));
#798=CARTESIAN_POINT('',(0.007,0.00377200596963647,-0.0421732211806607));
#799=CARTESIAN_POINT('',(0.007,-0.00222799403036353,-0.0421732211806607));
#800=CARTESIAN_POINT('',(0.,-0.00222799403036353,-0.0421732211806607));
#801=CARTESIAN_POINT('',(-0.005,-0.00222799403036353,-0.0421732211806607));
#802=CARTESIAN_POINT('',(-0.007,-0.00222799403036353,-0.0421732211806607));
#803=CARTESIAN_POINT('',(-0.007,-0.00822799403036352,-0.0421732211806607));
#804=CARTESIAN_POINT('',(0.007,-0.00222799403036353,-0.0421732211806607));
#805=CARTESIAN_POINT('',(0.007,-0.00822799403036352,-0.0421732211806607));
#806=CARTESIAN_POINT('',(0.007,-0.00822799403036352,-0.0421732211806607));
#807=CARTESIAN_POINT('',(0.007,-0.00222799403036352,-0.141));
#808=CARTESIAN_POINT('',(-0.007,-0.00222799403036352,-0.141));
#809=CARTESIAN_POINT('',(-0.007,-0.106054772849703,-0.135));
#810=CARTESIAN_POINT('',(-0.007,0.101598784788976,-0.135));
#811=CARTESIAN_POINT('',(0.007,-0.106054772849703,-0.135));
#812=CARTESIAN_POINT('',(0.007,-0.106054772849703,-0.135));
#813=CARTESIAN_POINT('',(0.007,-0.00222799403036352,-0.141));
#814=CARTESIAN_POINT('',(0.007,0.101598784788976,-0.135));
#815=CARTESIAN_POINT('',(0.007,0.101598784788976,-0.135));
#816=CARTESIAN_POINT('',(0.007,0.101685395379306,-0.135));
#817=CARTESIAN_POINT('',(-0.007,0.101685395379306,-0.135));
#818=CARTESIAN_POINT('',(-0.007,0.101772005969636,-0.135));
#819=CARTESIAN_POINT('',(0.007,0.101685395379306,-0.135));
#820=CARTESIAN_POINT('',(0.007,0.101772005969636,-0.135));
#821=CARTESIAN_POINT('',(0.007,0.101772005969636,-0.135));
#822=CARTESIAN_POINT('',(0.007,0.101772005969636,-0.138));
#823=CARTESIAN_POINT('',(0.,0.101772005969636,-0.141));
#824=CARTESIAN_POINT('',(0.,0.101772005969636,-0.1395));
#825=CARTESIAN_POINT('',(-0.007,0.101772005969636,-0.138));
#826=CARTESIAN_POINT('',(-0.007,0.101772005969636,-0.147));
#827=CARTESIAN_POINT('',(0.007,0.101772005969636,-0.138));
#828=CARTESIAN_POINT('',(0.007,0.101772005969636,-0.147));
#829=CARTESIAN_POINT('',(0.007,0.101772005969636,-0.147));
#830=CARTESIAN_POINT('',(0.007,0.101685395379306,-0.147));
#831=CARTESIAN_POINT('',(-0.007,0.101685395379306,-0.147));
#832=CARTESIAN_POINT('',(-0.007,0.101598784788976,-0.147));
#833=CARTESIAN_POINT('',(0.007,0.101685395379306,-0.147));
#834=CARTESIAN_POINT('',(0.007,0.101598784788976,-0.147));
#835=CARTESIAN_POINT('',(0.007,0.101598784788976,-0.147));
#836=CARTESIAN_POINT('',(0.007,-0.00222799403036337,-0.141));
#837=CARTESIAN_POINT('',(-0.007,-0.00222799403036337,-0.141));
#838=CARTESIAN_POINT('',(-0.007,-0.106054772849703,-0.147));
#839=CARTESIAN_POINT('',(0.007,-0.00222799403036337,-0.141));
#840=CARTESIAN_POINT('',(0.007,-0.106054772849703,-0.147));
#841=CARTESIAN_POINT('',(0.007,-0.106054772849703,-0.147));
#842=CARTESIAN_POINT('',(0.007,-0.106141383440033,-0.147));
#843=CARTESIAN_POINT('',(-0.007,-0.106141383440033,-0.147));
#844=CARTESIAN_POINT('',(-0.007,-0.106227994030363,-0.147));
#845=CARTESIAN_POINT('',(0.007,-0.106141383440033,-0.147));
#846=CARTESIAN_POINT('',(0.007,-0.106227994030363,-0.147));
#847=CARTESIAN_POINT('',(0.007,-0.106227994030363,-0.147));
#848=CARTESIAN_POINT('',(0.007,-0.106227994030363,-0.144));
#849=CARTESIAN_POINT('',(0.,-0.106227994030363,-0.141));
#850=CARTESIAN_POINT('',(0.,-0.106227994030363,-0.1425));
#851=CARTESIAN_POINT('',(-0.007,-0.106227994030363,-0.144));
#852=CARTESIAN_POINT('',(-0.007,-0.106227994030363,-0.135));
#853=CARTESIAN_POINT('',(0.007,-0.106227994030363,-0.144));
#854=CARTESIAN_POINT('',(0.007,-0.106227994030363,-0.135));
#855=CARTESIAN_POINT('',(0.007,-0.106227994030363,-0.135));
#856=CARTESIAN_POINT('',(0.007,-0.106141383440033,-0.135));
#857=CARTESIAN_POINT('',(-0.007,-0.106141383440033,-0.135));
#858=CARTESIAN_POINT('',(0.007,-0.106141383440033,-0.135));
#859=CARTESIAN_POINT('',(0.007,-0.00822799403036352,-0.0419271452287299));
#860=CARTESIAN_POINT('',(-0.007,-0.00822799403036352,-0.0419271452287299));
#861=CARTESIAN_POINT('',(0.007,-0.00822799403036352,-0.0419271452287299));
#862=CARTESIAN_POINT('',(0.007,0.0096331233596402,-0.143391197376551));
#863=CARTESIAN_POINT('',(-0.007,0.0096331233596402,-0.143391197376551));
#864=CARTESIAN_POINT('',(0.,-0.110227994030363,-0.141));
#865=CARTESIAN_POINT('',(0.,-0.110227994030363,-0.141));
#866=CARTESIAN_POINT('',(0.,-0.110227994030363,-0.1425));
#867=CARTESIAN_POINT('',(0.,-0.110227994030363,-0.141));
#868=CARTESIAN_POINT('',(0.,0.105772005969636,-0.141));
#869=CARTESIAN_POINT('',(0.,0.105772005969636,-0.141));
#870=CARTESIAN_POINT('',(0.,0.105772005969636,-0.1395));
#871=CARTESIAN_POINT('',(0.,0.105772005969636,-0.141));
#872=CARTESIAN_POINT('',(0.,-0.00222799403036353,-0.0381732211806608));
#873=CARTESIAN_POINT('',(0.,-0.00222799403036353,-0.0381732211806608));
#874=CARTESIAN_POINT('',(-0.005,-0.00222799403036353,-0.0381732211806608));
#875=CARTESIAN_POINT('',(0.,-0.00222799403036353,-0.0381732211806608));
#876=CARTESIAN_POINT('',(0.,-0.00284846590228995,-0.24370800236283));
#877=CARTESIAN_POINT('',(0.,-0.00284846590228995,-0.24370800236283));
#878=CARTESIAN_POINT('',(0.,-0.00784812441229419,-0.243649566215266));
#879=CARTESIAN_POINT('',(0.,-0.00348680095136713,-0.243700541485043));
#880=MECHANICAL_DESIGN_GEOMETRIC_PRESENTATION_REPRESENTATION('',(#521),
#881);
#881=(
GEOMETRIC_REPRESENTATION_CONTEXT(3)
GLOBAL_UNCERTAINTY_ASSIGNED_CONTEXT((#882))
GLOBAL_UNIT_ASSIGNED_CONTEXT((#885,#884,#883))
REPRESENTATION_CONTEXT('Part 3','TOP_LEVEL_ASSEMBLY_PART')
);
#882=UNCERTAINTY_MEASURE_WITH_UNIT(LENGTH_MEASURE(1.E-8),#885,
'DISTANCE_ACCURACY_VALUE','Maximum Tolerance applied to model');
#883=(
NAMED_UNIT(*)
SI_UNIT($,.STERADIAN.)
SOLID_ANGLE_UNIT()
);
#884=(
NAMED_UNIT(*)
PLANE_ANGLE_UNIT()
SI_UNIT($,.RADIAN.)
);
#885=(
LENGTH_UNIT()
NAMED_UNIT(*)
SI_UNIT($,.METRE.)
);
#886=PRODUCT_DEFINITION_SHAPE('','',#887);
#887=PRODUCT_DEFINITION('','',#889,#888);
#888=PRODUCT_DEFINITION_CONTEXT('',#895,'design');
#889=PRODUCT_DEFINITION_FORMATION_WITH_SPECIFIED_SOURCE('','',#891,
 .NOT_KNOWN.);
#890=PRODUCT_RELATED_PRODUCT_CATEGORY('','',(#891));
#891=PRODUCT('Part 3','Part 3','Part 3',(#893));
#892=PRODUCT_CATEGORY('','');
#893=PRODUCT_CONTEXT('',#895,'mechanical');
#894=APPLICATION_PROTOCOL_DEFINITION('international standard',
'ap242_managed_model_based_3d_engineering',2020,#895);
#895=APPLICATION_CONTEXT('managed model based 3d engineering');
ENDSEC;
END-ISO-10303-21;
